<?xml version="1.0" encoding="UTF-8"?>
<svg version="1.1" xmlns="http://www.w3.org/2000/svg" width="293" height="303">
<path d="M0 0 C0.73049561 -0.0021904 1.46099121 -0.0043808 2.21362305 -0.00663757 C4.62245306 -0.00894484 7.03005421 0.0172785 9.4387207 0.04418945 C11.11212272 0.04911315 12.78553024 0.05241216 14.4589386 0.05415344 C17.96190031 0.06178902 21.46445276 0.08234015 24.96728516 0.11328125 C29.46681441 0.15294759 33.96607794 0.17090477 38.46576214 0.18059063 C42.74845128 0.19054131 47.03107491 0.21044375 51.3137207 0.23168945 C52.13545965 0.2350852 52.9571986 0.23848095 53.80383873 0.2419796 C56.11670198 0.2535028 58.42939286 0.27201312 60.7421875 0.29296875 C62.71930977 0.30773506 62.71930977 0.30773506 64.7363739 0.32279968 C67.67700195 0.4699707 67.67700195 0.4699707 68.67700195 1.4699707 C68.92541533 3.09213998 69.15017725 4.71794665 69.36450195 6.3449707 C70.50155713 12.87030974 73.13307508 17.92758883 76.67700195 23.4699707 C77.05727539 24.0680957 77.43754883 24.6662207 77.8293457 25.2824707 C82.18965334 31.24104056 89.81029363 35.11385131 96.67700195 37.4699707 C99.3643045 37.91966575 99.3643045 37.91966575 102.11450195 38.0949707 C103.02071289 38.16973633 103.92692383 38.24450195 104.8605957 38.3215332 C107.80467293 38.47669955 110.7293684 38.47965429 113.67700195 38.4699707 C113.79285107 49.85728261 113.88169484 61.24445434 113.93606281 72.63223553 C113.96215683 77.92007448 113.99755176 83.20751027 114.05419922 88.49511719 C114.10852531 93.59797439 114.13842396 98.70044381 114.15138817 103.80356789 C114.16062694 105.7504671 114.17866829 107.69734508 114.20565224 109.64407921 C114.2419507 112.37125891 114.24694701 115.09683636 114.24462891 117.82421875 C114.26260529 118.62910736 114.28058167 119.43399597 114.29910278 120.26327515 C114.26490725 123.98126904 113.79077868 126.28350722 111.84529114 129.47187805 C107.11337538 132.45607727 102.90693217 132.1531734 97.41674805 132.08520508 C95.71112953 132.09352859 95.71112953 132.09352859 93.97105408 132.10202026 C90.21375353 132.11382826 86.45765559 132.08953044 82.70043945 132.0637207 C80.09160416 132.06201011 77.48276714 132.06207476 74.87393188 132.06384277 C69.40807489 132.06378925 63.94256414 132.0440577 58.47680664 132.01196289 C52.15722813 131.97503494 45.83810244 131.96629277 39.51843011 131.9732604 C33.4362958 131.9795636 27.35434177 131.96860393 21.27223587 131.94929504 C18.68459457 131.94225063 16.09693954 131.93914225 13.50928879 131.93998718 C9.89876062 131.93819551 6.28888293 131.91686794 2.6784668 131.88989258 C1.06537376 131.89428848 1.06537376 131.89428848 -0.58030701 131.89877319 C-2.05233833 131.8817485 -2.05233833 131.8817485 -3.55410767 131.86437988 C-4.83441581 131.85878681 -4.83441581 131.85878681 -6.14058876 131.85308075 C-8.32299805 131.4699707 -8.32299805 131.4699707 -10.09682369 130.26040554 C-11.73277617 127.87162103 -11.70293887 126.31567791 -11.7106781 123.42860413 C-11.72058273 122.38690567 -11.73048737 121.34520721 -11.74069214 120.27194214 C-11.73619049 119.12952057 -11.73168884 117.987099 -11.72705078 116.81005859 C-11.73391403 115.60660294 -11.74077728 114.40314728 -11.74784851 113.16322327 C-11.76303018 109.8613946 -11.76460608 106.56012968 -11.75890613 103.2583077 C-11.75581836 100.50228565 -11.76190216 97.74631488 -11.76794487 94.99030012 C-11.78199853 88.48844457 -11.78042209 81.98672038 -11.76904297 75.48486328 C-11.75756236 68.77677776 -11.77163415 62.06909207 -11.79843944 55.36105925 C-11.82059062 49.60214421 -11.82723514 43.84335473 -11.82136303 38.08440012 C-11.8179906 34.64466591 -11.82042695 31.20518798 -11.83761406 27.76548958 C-11.85594216 23.92992585 -11.84190204 20.09485438 -11.82470703 16.25927734 C-11.834375 15.11888 -11.84404297 13.97848267 -11.85400391 12.80352783 C-11.84416977 11.75900955 -11.83433563 10.71449127 -11.82420349 9.63832092 C-11.82399421 8.73148591 -11.82378492 7.8246509 -11.8235693 6.89033604 C-10.49403395 0.46175818 -5.68819457 -0.10631905 0 0 Z M54.55200195 39.3449707 C53.90545654 39.84295166 53.25891113 40.34093262 52.59277344 40.85400391 C51.26357029 41.87858781 49.93958173 42.90997166 48.62084961 43.94799805 C45.69861871 46.23601455 42.71743465 48.44283156 39.73950195 50.6574707 C38.05136879 51.92746284 36.36360713 53.19795004 34.67700195 54.4699707 C34.99154085 57.55225467 35.25728357 59.06777052 37.53125 61.24682617 C40.13177399 62.96468575 42.73262463 64.67534467 45.36450195 66.3449707 C46.71318359 67.25375977 46.71318359 67.25375977 48.08911133 68.1809082 C53.12346592 71.49404877 53.12346592 71.49404877 58.91137695 72.60668945 C62.28712952 71.21919793 65.24632667 69.46767504 68.23950195 67.4074707 C69.4609125 66.5866037 70.6836024 65.76763757 71.9074707 64.95043945 C72.5267041 64.53584473 73.1459375 64.12125 73.78393555 63.6940918 C75.65044985 62.48714019 77.5454029 61.36861581 79.4777832 60.27075195 C80.07840576 59.92471924 80.67902832 59.57868652 81.29785156 59.22216797 C82.9677052 58.26813189 84.64636686 57.32956166 86.32543945 56.3918457 C88.90407801 54.71150248 88.90407801 54.71150248 89.09790039 52.06958008 C88.91786982 49.35381058 88.91786982 49.35381058 86.84448242 47.63305664 C85.5820874 46.80209473 85.5820874 46.80209473 84.29418945 45.9543457 C83.37379883 45.34333008 82.4534082 44.73231445 81.50512695 44.1027832 C80.04333008 43.17079102 80.04333008 43.17079102 78.55200195 42.2199707 C77.60067383 41.58317383 76.6493457 40.94637695 75.66918945 40.2902832 C67.3466713 34.8575283 62.78361554 32.71564902 54.55200195 39.3449707 Z M8.86450195 67.5949707 C7.08994327 70.39690546 7.22116412 72.21398618 7.67700195 75.4699707 C10.39238226 79.51444985 13.11069861 81.57869468 17.40356445 83.80981445 C18.51860352 84.39827148 19.63364258 84.98672852 20.7824707 85.59301758 C21.94391602 86.19178711 23.10536133 86.79055664 24.30200195 87.4074707 C26.58707163 88.6017625 28.87094363 89.79834886 31.15356445 90.99731445 C32.25345703 91.57336426 33.35334961 92.14941406 34.48657227 92.74291992 C38.33579638 94.82659083 42.05984724 97.07623699 45.7644043 99.40576172 C47.60349113 100.63204422 47.60349113 100.63204422 49.67700195 100.4699707 C49.6305957 101.35040039 49.58418945 102.23083008 49.53637695 103.13793945 C49.5002832 104.29938477 49.46418945 105.46083008 49.42700195 106.6574707 C49.3805957 107.80602539 49.33418945 108.95458008 49.28637695 110.13793945 C49.75362695 114.12358195 50.82747786 115.69732226 53.67700195 118.4699707 C56.67700195 119.30330404 56.67700195 119.30330404 59.67700195 118.4699707 C62.64767841 115.62218194 63.61327885 114.04921374 64.06762695 109.91918945 C64.0212207 108.67782227 63.97481445 107.43645508 63.92700195 106.1574707 C63.8909082 104.90321289 63.85481445 103.64895508 63.81762695 102.35668945 C63.7712207 101.40407227 63.72481445 100.45145508 63.67700195 99.4699707 C64.5397876 99.20877441 65.40257324 98.94757813 66.29150391 98.6784668 C71.56754116 96.79511897 76.23753486 93.93181447 81.07324219 91.13012695 C82.86446062 90.09499459 84.66380157 89.07512729 86.46411133 88.0559082 C87.60041992 87.40106445 88.73672852 86.7462207 89.9074707 86.0715332 C90.94282959 85.47679199 91.97818848 84.88205078 93.04492188 84.26928711 C95.62691616 82.50420985 97.11218337 81.15805503 98.67700195 78.4699707 C99.18415128 73.75662019 99.18415128 73.75662019 97.48950195 69.4699707 C94.86418206 68.02151835 93.54785957 68.68038434 90.67700195 69.4699707 C88.49978171 70.49705976 86.35615557 71.59668358 84.23950195 72.7434082 C83.33566772 73.23002426 83.33566772 73.23002426 82.41357422 73.72647095 C80.49801969 74.75988669 78.5875842 75.80239654 76.67700195 76.8449707 C75.39345768 77.53825307 74.10960624 78.23096709 72.82543945 78.9230957 C66.32032745 82.3621795 66.32032745 82.3621795 60.0871582 86.25366211 C57.67700195 87.4699707 57.67700195 87.4699707 55.28979492 87.37353516 C51.97200951 86.22616795 48.94403045 84.69039219 45.87231445 83.01293945 C45.23010956 82.66870438 44.58790466 82.3244693 43.92623901 81.96980286 C41.88149826 80.87174961 39.84180041 79.76467273 37.80200195 78.6574707 C36.43903044 77.92447259 35.07575191 77.19204507 33.7121582 76.46020508 C23.70142135 71.07465903 23.70142135 71.07465903 18.90698242 68.25634766 C15.10841315 66.15550628 12.68298935 65.22487507 8.86450195 67.5949707 Z " fill="#35D95E" transform="translate(97.322998046875,85.530029296875)"/>
<path d="M0 0 C1.42204198 -0.00299528 2.84408499 -0.0055318 4.26612854 -0.00765991 C11.02266063 -0.02035889 17.77905029 -0.0504636 24.53546143 -0.09255981 C35.90962052 -0.16342117 47.28287557 -0.20627939 58.65728188 -0.18557835 C64.09227159 -0.17727457 69.5259166 -0.1885892 74.96069336 -0.24023438 C80.32264836 -0.29039192 85.68262441 -0.29175652 91.0446949 -0.25954819 C93.06001182 -0.2558286 95.07544394 -0.26928008 97.09051323 -0.30109024 C113.42289939 -0.5425392 113.42289939 -0.5425392 118.42630005 3.17730713 C120.96525184 5.64453868 123.05037475 7.9382288 124.91796875 10.94140625 C124.91796875 11.60140625 124.91796875 12.26140625 124.91796875 12.94140625 C125.50203806 13.2049783 126.08610737 13.46855036 126.68787575 13.74010944 C130.83764259 15.97548781 133.57508203 18.85447025 135.91796875 22.94140625 C136.98190784 27.7428444 136.99997057 32.5130278 137.01416016 37.40942383 C137.04333439 38.86749803 137.07527046 40.32551918 137.10974121 41.78347778 C137.19262876 45.72841606 137.22987349 49.6724558 137.25342607 53.61815095 C137.26957237 56.09223767 137.29438837 58.56609099 137.32194138 61.0400753 C137.41658071 69.69859018 137.46962973 78.35638811 137.48974609 87.01538086 C137.50966098 95.0416411 137.62715885 103.06250611 137.78953803 111.08702928 C137.92464949 118.00987965 137.98496579 124.93095605 137.9903425 131.8551113 C137.99503393 135.9766086 138.02898221 140.09237106 138.14079666 144.21247292 C138.86208509 172.42099375 138.86208509 172.42099375 129.16881371 182.93240643 C125.29387746 186.58968643 121.26115785 189.8607828 116.91796875 192.94140625 C115.97295596 193.76859067 115.97295596 193.76859067 115.00885201 194.61248589 C112.23625689 196.37468763 110.26510812 196.36467206 106.99084473 196.43675232 C105.77736862 196.46977951 104.56389252 196.5028067 103.31364441 196.53683472 C101.97147291 196.55811447 100.62929419 196.57894276 99.28710938 196.59936523 C97.87068973 196.63127221 96.45429256 196.66419066 95.03791809 196.69804382 C90.38365872 196.80247209 85.72918655 196.87330378 81.07421875 196.9375 C80.2795048 196.94868905 79.48479084 196.95987811 78.66599464 196.97140622 C71.15299145 197.07512552 63.63991808 197.16462299 56.1264267 197.22404385 C46.557363 197.30079802 36.99447638 197.44358543 27.42795229 197.67843002 C20.6803283 197.83836127 13.93435426 197.91960134 7.18490171 197.94518715 C3.16488894 197.96251524 -0.84797442 198.01234949 -4.8658905 198.14770317 C-32.39045382 199.0335922 -32.39045382 199.0335922 -43.48589325 188.73963261 C-55.14143347 176.44704796 -55.14143347 176.44704796 -55.34359741 168.07170105 C-55.37532043 166.82034866 -55.40704346 165.56899628 -55.43972778 164.27972412 C-55.46968532 162.8846492 -55.49936964 161.48956839 -55.52880859 160.09448242 C-55.56289588 158.63073929 -55.59711954 157.16699932 -55.63146973 155.70326233 C-55.93551362 142.2738353 -56.11130469 128.8422056 -56.25221825 115.410182 C-56.34909927 106.39030427 -56.48507692 97.37458071 -56.72119141 88.35717773 C-56.9273846 80.48100685 -57.05721117 72.6077561 -57.09855998 64.72893316 C-57.12285648 60.56593857 -57.18216952 56.41088181 -57.3329277 52.25038719 C-58.3123973 24.06537225 -58.3123973 24.06537225 -49.25523198 13.61319166 C-42.34721136 6.21253951 -35.33553587 -0.39230451 -24.83203125 -0.87109375 C-22.07221985 -0.87242126 -22.07221985 -0.87242126 -19.7590332 -0.58178711 C-13.16431502 0.07697416 -6.62305429 0.03191187 0 0 Z M14.89442444 16.82037354 C10.07863342 16.76794463 5.26339953 16.76341869 0.44735718 16.76641846 C-1.92304811 16.75816124 -4.29347256 16.73100853 -6.66342163 16.68377686 C-10.0041887 16.62051025 -13.33852498 16.62730092 -16.6796875 16.6484375 C-17.66786469 16.61354721 -18.65604187 16.57865692 -19.67416382 16.54270935 C-26.70768144 16.68538746 -30.39624711 19.21879631 -35.3204968 24.13668674 C-40.46578371 29.77530445 -40.62586857 35.33487555 -40.47363281 42.79125977 C-40.48529366 44.14614479 -40.50165678 45.50099611 -40.52230835 46.85577393 C-40.56358188 50.5036056 -40.53646285 54.14787072 -40.49374866 57.79556775 C-40.45818866 61.63059259 -40.47845477 65.46540509 -40.49017334 69.30052185 C-40.50100242 75.73729638 -40.46708116 82.17265994 -40.40625 88.60913086 C-40.33668129 96.0291127 -40.33851649 103.44648401 -40.37850595 110.86662537 C-40.41543791 118.03396381 -40.40124598 125.20034944 -40.36425018 132.36765862 C-40.34947012 135.40474088 -40.35232863 138.44102749 -40.36981964 141.47809029 C-40.38816156 145.06046653 -40.36142099 148.63986606 -40.30122757 152.22175598 C-40.27916589 154.14715115 -40.30071865 156.07289501 -40.32400513 157.99827576 C-40.12460404 166.23296507 -38.11124024 170.2826517 -32.20403671 176.04095364 C-31.50377491 176.668103 -30.80351311 177.29525236 -30.08203125 177.94140625 C-29.42203125 178.60140625 -28.76203125 179.26140625 -28.08203125 179.94140625 C-25.66445656 180.26032645 -25.66445656 180.26032645 -22.80819702 180.22901917 C-21.13016998 180.24831734 -21.13016998 180.24831734 -19.41824341 180.26800537 C-18.18500336 180.27181213 -16.95176331 180.2756189 -15.68115234 180.27954102 C-14.38673218 180.29107712 -13.09231201 180.30261322 -11.75866699 180.3144989 C-8.20052375 180.34505177 -4.6424453 180.36203525 -1.08419752 180.37471509 C1.14007967 180.38279633 3.36433821 180.39297702 5.58860397 180.40373039 C12.55113166 180.43646979 19.5136141 180.46035911 26.47620833 180.47254425 C34.50671144 180.48678169 42.53633305 180.53058837 50.56654418 180.60004574 C56.77643688 180.65189992 62.98607963 180.67672332 69.19618547 180.68136638 C72.90349915 180.68475933 76.60992255 180.69953146 80.31700516 180.74264717 C84.45879455 180.78997147 88.59868455 180.78126401 92.74072266 180.76782227 C94.57236465 180.80085953 94.57236465 180.80085953 96.44100952 180.83456421 C102.17364062 180.77139759 105.98328299 180.52201491 110.42904663 176.70225525 C111.60587272 175.46163328 112.77025863 174.20901187 113.91796875 172.94140625 C114.89436813 172.19394135 115.87076752 171.44647644 116.87675476 170.67636108 C120.04958731 166.42518813 119.62107991 162.3544484 119.57739258 157.18212891 C119.58787628 156.09668289 119.59835999 155.01123688 119.60916138 153.89289856 C119.6379956 150.29680035 119.631601 146.70166246 119.625 143.10546875 C119.63813023 140.58937389 119.65343849 138.07328953 119.67082214 135.55722046 C119.7067016 129.59231537 119.72040927 123.62775475 119.72344655 117.6627754 C119.72853509 110.30760273 119.76803994 102.9527233 119.80664062 95.59765625 C119.84334464 88.04930026 119.87648992 80.50097327 119.89375305 72.95254517 C119.89648067 71.79821676 119.89920828 70.64388836 119.90201855 69.45458031 C119.90432374 67.19829477 119.90195781 64.94199889 119.89457417 62.68572426 C119.88059993 57.24197206 119.94273837 51.82061487 120.16635132 46.38104248 C120.19807025 45.33509604 120.22978918 44.28914959 120.26246929 43.2115078 C120.32414272 41.25578513 120.41307363 39.3006387 120.53542042 37.3477726 C120.63251362 33.54642561 120.6863398 30.99280996 118.39296913 27.85466671 C116.5524408 25.97742249 116.5524408 25.97742249 114.61303425 24.39535236 C112.91796875 22.94140625 112.91796875 22.94140625 111.08203125 20.0480957 C107.62063686 16.67846887 103.94722307 17.21441989 99.29296875 17.234375 C98.33187698 17.21916306 97.37078522 17.20395111 96.38056946 17.1882782 C93.22612802 17.14450973 90.0726886 17.13619697 86.91796875 17.12890625 C84.71376607 17.10687342 82.50958171 17.08293037 80.30541992 17.05712891 C74.82775547 16.99927342 69.35042321 16.97083256 63.87249756 16.95318604 C60.49632518 16.93972515 57.12047137 16.91054122 53.74443054 16.87896729 C46.65684786 16.81440077 39.57344751 16.83237891 32.48600769 16.90606689 C26.62040934 16.95657091 20.75963169 16.89789437 14.89442444 16.82037354 Z " fill="#34D95E" transform="translate(108.08203125,53.05859375)"/>
<path d="M0 0 C1.42204198 -0.00299528 2.84408499 -0.0055318 4.26612854 -0.00765991 C11.02266063 -0.02035889 17.77905029 -0.0504636 24.53546143 -0.09255981 C35.90962052 -0.16342117 47.28287557 -0.20627939 58.65728188 -0.18557835 C64.09227159 -0.17727457 69.5259166 -0.1885892 74.96069336 -0.24023438 C80.32264836 -0.29039192 85.68262441 -0.29175652 91.0446949 -0.25954819 C93.06001182 -0.2558286 95.07544394 -0.26928008 97.09051323 -0.30109024 C113.42289939 -0.5425392 113.42289939 -0.5425392 118.42630005 3.17730713 C120.96525184 5.64453868 123.05037475 7.9382288 124.91796875 10.94140625 C124.91796875 11.60140625 124.91796875 12.26140625 124.91796875 12.94140625 C125.5018335 13.20518287 126.08569824 13.46895948 126.68725586 13.74072933 C130.84472598 15.97847962 133.58798284 18.83469859 135.91796875 22.94140625 C136.94075698 27.80264603 136.8977951 32.62254313 136.85546875 37.56811523 C136.86824558 39.04238594 136.88396055 40.51663365 136.90237427 41.99084473 C136.94267436 45.97674501 136.93872066 49.96143301 136.92411041 53.94746661 C136.91588477 57.28241501 136.92931501 60.61713634 136.94262123 63.95205742 C136.97362317 71.82313675 136.96857884 79.69362325 136.94042969 87.56469727 C136.91202797 95.66894369 136.94194086 103.77147609 137.00104904 111.87551826 C137.04998425 118.8491367 137.06379544 125.82222104 137.04945755 132.79599625 C137.041179 136.95432245 137.04566455 141.11158833 137.08349609 145.26977348 C137.11745577 149.18177195 137.10726643 153.09128375 137.06399155 157.0031662 C137.05533589 158.43294705 137.06179313 159.86291749 137.08502579 161.29253578 C137.24661919 172.0817722 137.24661919 172.0817722 133.83880615 176.85148811 C131.63263086 179.075847 129.42011015 181.060536 126.91796875 182.94140625 C126.25796875 182.61140625 125.59796875 182.28140625 124.91796875 181.94140625 C125.48272289 181.53304661 126.04747704 181.12468697 126.62934494 180.70395279 C130.17735873 177.74505845 132.55823782 175.39302913 133.69016266 170.82537079 C133.9865129 166.99460923 134.04673086 163.20058388 134.01660156 159.36230469 C134.03401473 157.89288715 134.05475563 156.42350588 134.07855225 154.95417786 C134.13191285 150.98041947 134.1344507 147.00818717 134.12429905 143.03414059 C134.12000453 139.70689261 134.13959378 136.3799486 134.15872073 133.05276608 C134.20303546 125.19591393 134.20489188 117.33982668 134.18066406 109.48291016 C134.15652712 101.4021318 134.20569438 93.32414329 134.29094434 85.24384093 C134.36163346 78.28540855 134.38537897 71.32785954 134.37239337 64.36908174 C134.36517308 60.22202536 134.37535439 56.0769574 134.43125153 51.93022919 C134.48192656 48.02501978 134.47348438 44.12411991 134.42160797 40.21896935 C134.41221961 38.79526181 134.42281902 37.37124259 134.45610046 35.94789314 C134.61696057 28.52667909 133.84662543 23.20273642 128.8629806 17.62929273 C123.88090104 12.45408559 123.88090104 12.45408559 117.02144241 10.62537766 C115.9972961 10.72966709 114.9731498 10.83395653 113.91796875 10.94140625 C113.91796875 11.60140625 113.91796875 12.26140625 113.91796875 12.94140625 C113.25796875 12.94140625 112.59796875 12.94140625 111.91796875 12.94140625 C111.91796875 13.93140625 111.91796875 14.92140625 111.91796875 15.94140625 C111.25796875 15.94140625 110.59796875 15.94140625 109.91796875 15.94140625 C110.376875 16.46089844 110.83578125 16.98039062 111.30859375 17.515625 C111.9221875 18.21300781 112.53578125 18.91039063 113.16796875 19.62890625 C113.77125 20.31339844 114.37453125 20.99789062 114.99609375 21.703125 C115.6303125 22.44175781 116.26453125 23.18039063 116.91796875 23.94140625 C117.60699248 24.69202583 118.29601622 25.44264542 119.00591946 26.21601105 C121.23655816 29.39551695 121.422001 30.94566333 121.43263245 34.78601074 C121.4453569 35.95522568 121.45808136 37.12444061 121.47119141 38.3290863 C121.46466553 39.60300735 121.45813965 40.87692841 121.45141602 42.18945312 C121.45847723 43.55152826 121.46722311 44.91359554 121.4775238 46.27565002 C121.50000392 49.96784953 121.49708175 53.65962011 121.48820233 57.35186195 C121.48308865 60.43596345 121.49038796 63.5199846 121.49767441 66.60407782 C121.51466859 73.8798409 121.51111203 81.15539423 121.49438477 88.43115234 C121.4774571 95.93457597 121.49330745 103.43741812 121.52560765 110.94077826 C121.55230391 117.38680749 121.55957971 123.83265572 121.55109257 130.27873468 C121.54616418 134.12707077 121.5483739 137.97505686 121.56888008 141.823349 C121.58723865 145.44170457 121.58127785 149.05922348 121.55668068 152.6775341 C121.54928773 154.6362728 121.56652626 156.59505604 121.58450317 158.5537262 C121.48092606 168.12416047 121.48092606 168.12416047 118.48448181 171.14538574 C117.6375325 171.73807251 116.79058319 172.33075928 115.91796875 172.94140625 C114.35976297 174.76529689 112.8510404 176.61920907 111.34765625 178.48828125 C108.05862677 181.83122925 103.30286406 181.16416563 98.9296875 181.2578125 C98.07974716 181.27913742 97.22980682 181.30046234 96.35411072 181.32243347 C87.79156976 181.5249092 79.22729791 181.64825265 70.66314697 181.75924683 C62.89021973 181.86091206 55.11899169 181.99526098 47.34716797 182.16162109 C38.67372613 182.34607063 30.00056815 182.48337528 21.32568645 182.5789156 C16.45422172 182.63393502 11.58477194 182.70830072 6.71444702 182.8286438 C2.04994982 182.9429256 -2.61234982 183.00294528 -7.27816582 183.02456093 C-9.01392916 183.04180171 -10.74962618 183.0780216 -12.48454475 183.13484764 C-27.16972763 183.59658758 -27.16972763 183.59658758 -33.14650917 178.07477188 C-37.85293178 173.14234875 -41.33504194 169.23583641 -41.32254028 162.30366516 C-41.32528961 161.12997375 -41.32803894 159.95628235 -41.33087158 158.74702454 C-41.32368103 157.45805771 -41.31649048 156.16909088 -41.30908203 154.84106445 C-41.30851794 153.47118132 -41.30883444 152.10129758 -41.30996704 150.73141479 C-41.31054162 147.0105839 -41.29877029 143.28988157 -41.28481913 139.56908059 C-41.27232934 135.68132949 -41.27114265 131.79357556 -41.26876831 127.9058075 C-41.26254838 120.54289933 -41.24613064 113.18005045 -41.22606933 105.81716841 C-41.20372627 97.43516267 -41.19272091 89.05315411 -41.18267846 80.67112601 C-41.16176485 63.42785178 -41.12657893 46.18463528 -41.08203125 28.94140625 C-42.40203125 28.28140625 -43.72203125 27.62140625 -45.08203125 26.94140625 C-44.75203125 26.28140625 -44.42203125 25.62140625 -44.08203125 24.94140625 C-45.07203125 24.94140625 -46.06203125 24.94140625 -47.08203125 24.94140625 C-47.41203125 25.60140625 -47.74203125 26.26140625 -48.08203125 26.94140625 C-49.54265975 24.29401709 -50.08203125 23.04692291 -50.08203125 19.94140625 C-52.78049353 22.63986853 -52.3720566 24.08271972 -52.45039368 27.86253357 C-52.48060104 29.12519043 -52.51080841 30.38784729 -52.54193115 31.68876648 C-52.5651584 33.09646051 -52.58803467 34.50416037 -52.6105957 35.91186523 C-52.64112717 37.38871474 -52.67226461 38.86555182 -52.70396423 40.34237671 C-52.97993274 53.88212564 -53.12014561 67.42540896 -53.23072529 80.96740627 C-53.31389897 90.96357069 -53.45874356 100.95468929 -53.68685752 110.94861931 C-53.84208189 117.98999558 -53.92285012 125.03000883 -53.95105332 132.07302338 C-53.96995022 136.27097273 -54.0202774 140.46263895 -54.15203285 144.6586895 C-54.98801958 167.26098929 -54.98801958 167.26098929 -44.33569336 186.52661133 C-32.99946887 196.78107882 -19.69214364 196.46004349 -5.19680882 195.90082264 C-1.62380835 195.78373174 1.94960674 195.77739107 5.52423096 195.75775146 C12.2800871 195.70426502 19.02999304 195.55348019 25.78332257 195.36630988 C33.42178998 195.15968371 41.06034033 195.06751002 48.70097303 194.98278093 C65.11085528 194.79580929 81.51583771 194.49404936 97.91796875 193.94140625 C98.78862473 193.91403885 99.6592807 193.88667145 100.55632019 193.85847473 C102.69932468 193.78496192 104.83986005 193.69137424 106.98144531 193.58496094 C108.05638245 193.53458679 109.13131958 193.48421265 110.23883057 193.43231201 C114.77266732 192.6015648 116.94279504 190.35197124 119.91796875 186.94140625 C119.91796875 189.94140625 119.91796875 189.94140625 118.87790203 191.51177025 C113.02621242 197.24547962 106.78950682 196.88133058 98.9465332 196.93994141 C97.52964254 196.97103075 96.11280094 197.00442847 94.6960144 197.03994751 C90.85850837 197.12688984 87.02157038 197.17406512 83.18326592 197.2084012 C80.77604312 197.23051659 78.36897562 197.25909463 75.96184349 197.28944016 C68.40347073 197.3821895 60.84547467 197.44931274 53.2865985 197.48147166 C44.61070009 197.51881186 35.9416082 197.64112586 27.26790649 197.83847582 C20.53279879 197.9863207 13.79959554 198.05529812 7.06289071 198.06719816 C3.05323807 198.07601262 -0.94968286 198.11604963 -4.95758629 198.23939896 C-32.37454322 199.03849799 -32.37454322 199.03849799 -43.47865772 188.73239708 C-55.14165791 176.43774981 -55.14165791 176.43774981 -55.34359741 168.07170105 C-55.37532043 166.82034866 -55.40704346 165.56899628 -55.43972778 164.27972412 C-55.46968532 162.8846492 -55.49936964 161.48956839 -55.52880859 160.09448242 C-55.56289588 158.63073929 -55.59711954 157.16699932 -55.63146973 155.70326233 C-55.93551362 142.2738353 -56.11130469 128.8422056 -56.25221825 115.410182 C-56.34909927 106.39030427 -56.48507692 97.37458071 -56.72119141 88.35717773 C-56.9273846 80.48100685 -57.05721117 72.6077561 -57.09855998 64.72893316 C-57.12285648 60.56593857 -57.18216952 56.41088181 -57.3329277 52.25038719 C-58.3123973 24.06537225 -58.3123973 24.06537225 -49.25523198 13.61319166 C-42.34721136 6.21253951 -35.33553587 -0.39230451 -24.83203125 -0.87109375 C-22.07221985 -0.87242126 -22.07221985 -0.87242126 -19.7590332 -0.58178711 C-13.16431502 0.07697416 -6.62305429 0.03191187 0 0 Z M14.89442444 16.82037354 C10.07863342 16.76794463 5.26339953 16.76341869 0.44735718 16.76641846 C-1.92304811 16.75816124 -4.29347256 16.73100853 -6.66342163 16.68377686 C-10.0041887 16.62051025 -13.33852498 16.62730092 -16.6796875 16.6484375 C-17.66786469 16.61354721 -18.65604187 16.57865692 -19.67416382 16.54270935 C-26.70768144 16.68538746 -30.39624711 19.21879631 -35.3204968 24.13668674 C-40.46578371 29.77530445 -40.62586857 35.33487555 -40.47363281 42.79125977 C-40.48529366 44.14614479 -40.50165678 45.50099611 -40.52230835 46.85577393 C-40.56358188 50.5036056 -40.53646285 54.14787072 -40.49374866 57.79556775 C-40.45818866 61.63059259 -40.47845477 65.46540509 -40.49017334 69.30052185 C-40.50100242 75.73729638 -40.46708116 82.17265994 -40.40625 88.60913086 C-40.33668129 96.0291127 -40.33851649 103.44648401 -40.37850595 110.86662537 C-40.41543791 118.03396381 -40.40124598 125.20034944 -40.36425018 132.36765862 C-40.34947012 135.40474088 -40.35232863 138.44102749 -40.36981964 141.47809029 C-40.38816156 145.06046653 -40.36142099 148.63986606 -40.30122757 152.22175598 C-40.27916589 154.14715115 -40.30071865 156.07289501 -40.32400513 157.99827576 C-40.12460404 166.23296507 -38.11124024 170.2826517 -32.20403671 176.04095364 C-31.50377491 176.668103 -30.80351311 177.29525236 -30.08203125 177.94140625 C-29.42203125 178.60140625 -28.76203125 179.26140625 -28.08203125 179.94140625 C-25.66445656 180.26032645 -25.66445656 180.26032645 -22.80819702 180.22901917 C-21.13016998 180.24831734 -21.13016998 180.24831734 -19.41824341 180.26800537 C-18.18500336 180.27181213 -16.95176331 180.2756189 -15.68115234 180.27954102 C-14.38673218 180.29107712 -13.09231201 180.30261322 -11.75866699 180.3144989 C-8.20052375 180.34505177 -4.6424453 180.36203525 -1.08419752 180.37471509 C1.14007967 180.38279633 3.36433821 180.39297702 5.58860397 180.40373039 C12.55113166 180.43646979 19.5136141 180.46035911 26.47620833 180.47254425 C34.50671144 180.48678169 42.53633305 180.53058837 50.56654418 180.60004574 C56.77643688 180.65189992 62.98607963 180.67672332 69.19618547 180.68136638 C72.90349915 180.68475933 76.60992255 180.69953146 80.31700516 180.74264717 C84.45879455 180.78997147 88.59868455 180.78126401 92.74072266 180.76782227 C94.57236465 180.80085953 94.57236465 180.80085953 96.44100952 180.83456421 C102.17364062 180.77139759 105.98328299 180.52201491 110.42904663 176.70225525 C111.60587272 175.46163328 112.77025863 174.20901187 113.91796875 172.94140625 C114.89436813 172.19394135 115.87076752 171.44647644 116.87675476 170.67636108 C120.04958731 166.42518813 119.62107991 162.3544484 119.57739258 157.18212891 C119.58787628 156.09668289 119.59835999 155.01123688 119.60916138 153.89289856 C119.6379956 150.29680035 119.631601 146.70166246 119.625 143.10546875 C119.63813023 140.58937389 119.65343849 138.07328953 119.67082214 135.55722046 C119.7067016 129.59231537 119.72040927 123.62775475 119.72344655 117.6627754 C119.72853509 110.30760273 119.76803994 102.9527233 119.80664062 95.59765625 C119.84334464 88.04930026 119.87648992 80.50097327 119.89375305 72.95254517 C119.89648067 71.79821676 119.89920828 70.64388836 119.90201855 69.45458031 C119.90432374 67.19829477 119.90195781 64.94199889 119.89457417 62.68572426 C119.88059993 57.24197206 119.94273837 51.82061487 120.16635132 46.38104248 C120.19807025 45.33509604 120.22978918 44.28914959 120.26246929 43.2115078 C120.32414272 41.25578513 120.41307363 39.3006387 120.53542042 37.3477726 C120.63251362 33.54642561 120.6863398 30.99280996 118.39296913 27.85466671 C116.5524408 25.97742249 116.5524408 25.97742249 114.61303425 24.39535236 C112.91796875 22.94140625 112.91796875 22.94140625 111.08203125 20.0480957 C107.62063686 16.67846887 103.94722307 17.21441989 99.29296875 17.234375 C98.33187698 17.21916306 97.37078522 17.20395111 96.38056946 17.1882782 C93.22612802 17.14450973 90.0726886 17.13619697 86.91796875 17.12890625 C84.71376607 17.10687342 82.50958171 17.08293037 80.30541992 17.05712891 C74.82775547 16.99927342 69.35042321 16.97083256 63.87249756 16.95318604 C60.49632518 16.93972515 57.12047137 16.91054122 53.74443054 16.87896729 C46.65684786 16.81440077 39.57344751 16.83237891 32.48600769 16.90606689 C26.62040934 16.95657091 20.75963169 16.89789437 14.89442444 16.82037354 Z " fill="#35D85E" transform="translate(108.08203125,53.05859375)"/>
<path d="M0 0 C1.9793882 -0.02781807 1.9793882 -0.02781807 3.99876404 -0.05619812 C7.60454306 -0.1047442 11.20943645 -0.11487759 14.81550694 -0.11489797 C17.83458153 -0.11763783 20.8534623 -0.13726692 23.87247157 -0.15619177 C31.00184917 -0.19979155 38.13076523 -0.21007628 45.26025391 -0.20117188 C52.59279029 -0.19273778 59.92300283 -0.24719194 67.25500512 -0.3317166 C73.56876357 -0.4018634 79.88177187 -0.42907897 86.19591498 -0.42328256 C89.95898409 -0.42046222 93.72011 -0.43413943 97.48279572 -0.4907093 C123.38711925 -0.85249389 123.38711925 -0.85249389 129.77122116 4.7832346 C134.0284276 9.44640365 135.92359368 13.13289491 135.95761108 19.33955383 C135.96621155 20.50464478 135.97481201 21.66973572 135.9836731 22.87013245 C135.99006302 24.79719276 135.99006302 24.79719276 135.99658203 26.76318359 C136.00448245 28.12480886 136.01275137 29.48643202 136.0213623 30.84805298 C136.04758861 35.32584634 136.06289017 39.80364908 136.07714844 44.28149414 C136.0825078 45.82235406 136.08788531 47.36321392 136.09328079 48.90407372 C136.11491009 55.31302867 136.13364729 61.7219811 136.14490318 68.13096333 C136.16114576 77.31918259 136.19432992 86.50697918 136.25130403 95.69503909 C136.28998957 102.15370293 136.30953418 108.61225365 136.31482375 115.07103032 C136.31847907 118.92953218 136.33051862 122.78758331 136.36292648 126.64595985 C136.3929835 130.27650215 136.39932807 133.90632046 136.38754272 137.5369606 C136.38721651 139.50294515 136.41169796 141.46888486 136.43692017 143.43470764 C136.3688201 153.04209288 136.3688201 153.04209288 133.37319946 156.06266785 C132.52526825 156.65437271 131.67733704 157.24607758 130.80371094 157.85571289 C129.24550515 159.67960353 127.73678258 161.53351571 126.23339844 163.40258789 C122.94436896 166.74553589 118.18860625 166.07847227 113.81542969 166.17211914 C112.96548935 166.19344406 112.11554901 166.21476898 111.23985291 166.23674011 C102.67731195 166.43921584 94.1130401 166.56255929 85.54888916 166.67355347 C77.77596192 166.7752187 70.00473388 166.90956762 62.23291016 167.07592773 C53.55946832 167.26037727 44.88631034 167.39768192 36.21142864 167.49322224 C31.33996391 167.54824166 26.47051413 167.62260736 21.60018921 167.74295044 C16.93569201 167.85723224 12.27339237 167.91725192 7.60757637 167.93886757 C5.87181302 167.95610835 4.136116 167.99232824 2.40119743 168.04915428 C-12.28398545 168.51089422 -12.28398545 168.51089422 -18.26076698 162.98907852 C-22.94142725 158.08365483 -26.43669788 154.15800736 -26.47717285 147.26507568 C-26.49430328 145.51971275 -26.49430328 145.51971275 -26.51177979 143.73908997 C-26.5140155 142.46112045 -26.51625122 141.18315094 -26.51855469 139.86645508 C-26.52781275 138.507924 -26.53786231 137.14939812 -26.54864502 135.7908783 C-26.57488403 132.09855691 -26.58778146 128.40630825 -26.59666634 124.7139082 C-26.60253028 122.40604615 -26.61074042 120.09820393 -26.61967468 117.79035187 C-26.64702443 110.56672882 -26.66635685 103.34315113 -26.67407846 96.11947989 C-26.68303538 87.7862797 -26.71810962 79.45373637 -26.77607965 71.12073588 C-26.81935084 64.67644435 -26.83948903 58.23233735 -26.8421607 51.78790212 C-26.84425452 47.94046478 -26.85601777 44.0936449 -26.89179993 40.24636078 C-26.92482776 36.6247089 -26.92904304 33.00413624 -26.91152191 29.38238716 C-26.90925365 27.42632814 -26.93664169 25.47030445 -26.96502686 23.51445007 C-26.87381425 13.89345828 -26.87381425 13.89345828 -23.5892334 9.88653564 C-22.4787513 8.8537711 -21.34737911 7.84301466 -20.19628906 6.85571289 C-19.70448528 6.28879384 -19.2126815 5.72187479 -18.70597458 5.13777637 C-13.41285803 -0.5155761 -7.34677135 -0.02544709 0 0 Z M29.78016663 1.73468018 C24.9643756 1.68225127 20.14914172 1.67772533 15.33309937 1.6807251 C12.96269407 1.67246788 10.59226963 1.64531517 8.22232056 1.5980835 C4.88155349 1.5348169 1.5472172 1.54160756 -1.79394531 1.56274414 C-2.7821225 1.52785385 -3.77029968 1.49296356 -4.78842163 1.45701599 C-11.82193925 1.5996941 -15.51050493 4.13310295 -20.43475461 9.05099338 C-25.58004152 14.68961109 -25.74012638 20.24918219 -25.58789062 27.70556641 C-25.59955148 29.06045143 -25.6159146 30.41530275 -25.63656616 31.77008057 C-25.67783969 35.41791224 -25.65072066 39.06217736 -25.60800648 42.70987439 C-25.57244647 46.54489923 -25.59271258 50.37971173 -25.60443115 54.21482849 C-25.61526023 60.65160302 -25.58133897 67.08696658 -25.52050781 73.5234375 C-25.4509391 80.94341934 -25.45277431 88.36079066 -25.49276376 95.78093201 C-25.52969572 102.94827045 -25.51550379 110.11465608 -25.478508 117.28196526 C-25.46372793 120.31904752 -25.46658644 123.35533413 -25.48407745 126.39239693 C-25.50241937 129.97477317 -25.4756788 133.5541727 -25.41548538 137.13606262 C-25.3934237 139.06145779 -25.41497647 140.98720165 -25.43826294 142.9125824 C-25.23886186 151.14727171 -23.22549805 155.19695834 -17.31829453 160.95526028 C-16.61803272 161.58240964 -15.91777092 162.209559 -15.19628906 162.85571289 C-14.53628906 163.51571289 -13.87628906 164.17571289 -13.19628906 164.85571289 C-10.77871437 165.17463309 -10.77871437 165.17463309 -7.92245483 165.14332581 C-6.2444278 165.16262398 -6.2444278 165.16262398 -4.53250122 165.18231201 C-3.29926117 165.18611877 -2.06602112 165.18992554 -0.79541016 165.19384766 C0.49901001 165.20538376 1.79343018 165.21691986 3.1270752 165.22880554 C6.68521844 165.25935841 10.24329688 165.27634189 13.80154467 165.28902173 C16.02582186 165.29710297 18.2500804 165.30728367 20.47434616 165.31803703 C27.43687384 165.35077643 34.39935628 165.37466575 41.36195052 165.38685089 C49.39245363 165.40108833 57.42207524 165.44489501 65.45228636 165.51435238 C71.66217907 165.56620656 77.87182182 165.59102996 84.08192766 165.59567302 C87.78924134 165.59906598 91.49566473 165.6138381 95.20274734 165.65695381 C99.34453674 165.70427811 103.48442674 165.69557065 107.62646484 165.68212891 C109.45810684 165.71516617 109.45810684 165.71516617 111.32675171 165.74887085 C117.0593828 165.68570423 120.86902518 165.43632155 125.31478882 161.61656189 C126.49161491 160.37593992 127.65600082 159.12331851 128.80371094 157.85571289 C129.78011032 157.10824799 130.7565097 156.36078308 131.76249695 155.59066772 C134.93532949 151.33949477 134.50682209 147.26875504 134.46313477 142.09643555 C134.47361847 141.01098953 134.48410217 139.92554352 134.49490356 138.8072052 C134.52373779 135.21110699 134.51734319 131.6159691 134.51074219 128.01977539 C134.52387242 125.50368053 134.53918068 122.98759617 134.55656433 120.4715271 C134.59244378 114.50662201 134.60615146 108.54206139 134.60918874 102.57708204 C134.61427727 95.22190937 134.65378212 87.86702994 134.69238281 80.51196289 C134.72908683 72.9636069 134.7622321 65.41527991 134.77949524 57.86685181 C134.78222285 56.7125234 134.78495047 55.558195 134.78776073 54.36888695 C134.79006593 52.11260141 134.78769999 49.85630553 134.78031635 47.6000309 C134.76634212 42.1562787 134.82848056 36.73492151 135.05209351 31.29534912 C135.08381244 30.24940268 135.11553137 29.20345623 135.14821148 28.12581444 C135.20988491 26.17009177 135.29881582 24.21494534 135.42116261 22.26207924 C135.51825581 18.46073225 135.57208199 15.9071166 133.27871132 12.76897335 C131.43818298 10.89172913 131.43818298 10.89172913 129.49877644 9.309659 C127.80371094 7.85571289 127.80371094 7.85571289 125.96777344 4.96240234 C122.50637905 1.59277552 118.83296526 2.12872653 114.17871094 2.14868164 C113.21761917 2.1334697 112.2565274 2.11825775 111.26631165 2.10258484 C108.11187021 2.05881637 104.95843079 2.05050361 101.80371094 2.04321289 C99.59950826 2.02118006 97.39532389 1.99723701 95.19116211 1.97143555 C89.71349766 1.91358006 84.2361654 1.8851392 78.75823975 1.86749268 C75.38206737 1.85403179 72.00621356 1.82484786 68.63017273 1.79327393 C61.54259005 1.72870741 54.4591897 1.74668555 47.37174988 1.82037354 C41.50615153 1.87087755 35.64537388 1.81220101 29.78016663 1.73468018 Z " fill="#5EDB7B" transform="translate(93.1962890625,68.144287109375)"/>
<path d="M0 0 C3.96970404 1.34165947 7.04855561 3.3339404 10.4609375 5.73046875 C11.44622437 6.40505127 11.44622437 6.40505127 12.45141602 7.09326172 C17.08987211 10.28804352 21.63492836 13.59116575 26.0859375 17.04296875 C25.9609375 19.79296875 25.9609375 19.79296875 25.0859375 23.04296875 C22.0234375 25.41796875 22.0234375 25.41796875 19.0859375 27.04296875 C20.0759375 28.03296875 20.0759375 28.03296875 21.0859375 29.04296875 C20.0959375 30.52796875 20.0959375 30.52796875 19.0859375 32.04296875 C20.5709375 33.03296875 20.5709375 33.03296875 22.0859375 34.04296875 C22.0859375 34.70296875 22.0859375 35.36296875 22.0859375 36.04296875 C21.4259375 36.04296875 20.7659375 36.04296875 20.0859375 36.04296875 C20.0859375 36.70296875 20.0859375 37.36296875 20.0859375 38.04296875 C22.7259375 37.05296875 25.3659375 36.06296875 28.0859375 35.04296875 C28.0859375 35.70296875 28.0859375 36.36296875 28.0859375 37.04296875 C27.20333252 37.5119458 26.32072754 37.98092285 25.41137695 38.46411133 C22.1212771 40.21277495 18.83210925 41.96318537 15.54321289 43.71411133 C14.12256624 44.47011851 12.70167092 45.22565862 11.28051758 45.98071289 C9.23192042 47.06923194 7.18423823 48.15945546 5.13671875 49.25 C4.5063118 49.58449661 3.87590485 49.91899323 3.22639465 50.2636261 C0.5455963 51.69327278 -2.03302312 53.12442334 -4.54223633 54.8425293 C-6.9140625 56.04296875 -6.9140625 56.04296875 -9.30126953 55.9465332 C-12.61905494 54.799166 -15.647034 53.26339023 -18.71875 51.5859375 C-19.68205734 51.06958488 -19.68205734 51.06958488 -20.66482544 50.5428009 C-22.70956619 49.44474766 -24.74926404 48.33767078 -26.7890625 47.23046875 C-28.15203401 46.49747064 -29.51531254 45.76504312 -30.87890625 45.03320312 C-40.9043646 39.63973726 -40.9043646 39.63973726 -45.68017578 36.82543945 C-48.86923888 35.06767487 -50.3649721 34.43455325 -53.9140625 35.04296875 C-56.17704687 36.91260873 -56.17704687 36.91260873 -56.3515625 39.85546875 C-55.76314858 44.14248444 -54.14035131 45.21670497 -50.9140625 48.04296875 C-48.68865959 49.39177684 -46.41489591 50.66375154 -44.1015625 51.85546875 C-42.35939453 52.76232422 -42.35939453 52.76232422 -40.58203125 53.6875 C-39.26138672 54.35845703 -39.26138672 54.35845703 -37.9140625 55.04296875 C-37.9140625 55.70296875 -37.9140625 56.36296875 -37.9140625 57.04296875 C-45.34873251 55.08647664 -52.87904082 50.91716071 -57.9140625 45.04296875 C-58.93616215 42.36528061 -59.13390989 39.89534776 -58.9140625 37.04296875 C-57.4765625 33.98046875 -57.4765625 33.98046875 -54.9140625 32.04296875 C-47.95825944 31.54612567 -43.21026917 34.92497544 -37.453125 38.546875 C-35.11805199 40.21218781 -35.11805199 40.21218781 -32.9140625 40.04296875 C-33.2440625 38.72296875 -33.5740625 37.40296875 -33.9140625 36.04296875 C-32.5940625 36.04296875 -31.2740625 36.04296875 -29.9140625 36.04296875 C-29.9140625 35.38296875 -29.9140625 34.72296875 -29.9140625 34.04296875 C-27.9340625 33.54796875 -27.9340625 33.54796875 -25.9140625 33.04296875 C-27.5640625 31.06296875 -29.2140625 29.08296875 -30.9140625 27.04296875 C-30.5840625 26.38296875 -30.2540625 25.72296875 -29.9140625 25.04296875 C-29.31980469 25.46707031 -28.72554687 25.89117187 -28.11328125 26.328125 C-25.39348374 28.25270955 -22.65506673 30.14871949 -19.9140625 32.04296875 C-18.95628906 32.72230469 -17.99851563 33.40164062 -17.01171875 34.1015625 C-15.60212891 35.06255859 -15.60212891 35.06255859 -14.1640625 36.04296875 C-13.30296875 36.64109375 -12.441875 37.23921875 -11.5546875 37.85546875 C-8.09696729 39.41041985 -6.52412203 39.14743703 -2.9140625 38.04296875 C-0.57172186 36.73574631 1.57230964 35.4254509 3.7734375 33.91796875 C5.00119156 33.10399993 6.22905766 32.29020008 7.45703125 31.4765625 C8.06401855 31.06905762 8.67100586 30.66155273 9.29638672 30.24169922 C11.95773709 28.45899386 14.64320315 26.71531341 17.3359375 24.98046875 C18.20734375 24.41199219 19.07875 23.84351563 19.9765625 23.2578125 C22.0859375 22.04296875 22.0859375 22.04296875 24.0859375 22.04296875 C24.0859375 20.39296875 24.0859375 18.74296875 24.0859375 17.04296875 C23.37179688 16.79289062 22.65765625 16.5428125 21.921875 16.28515625 C18.80275707 14.91893104 16.42049292 13.22536757 13.7109375 11.16796875 C6.91691661 5.45391976 6.91691661 5.45391976 -1.19921875 3.171875 C-4.77899204 4.32049291 -7.50244887 6.31631973 -10.4765625 8.54296875 C-11.08064941 8.98495605 -11.68473633 9.42694336 -12.30712891 9.88232422 C-14.18347559 11.25955386 -16.04975088 12.64950216 -17.9140625 14.04296875 C-18.51428223 14.48930664 -19.11450195 14.93564453 -19.73291016 15.39550781 C-23.13868581 17.92885409 -26.53173708 20.47834838 -29.9140625 23.04296875 C-29.9140625 22.05296875 -29.9140625 21.06296875 -29.9140625 20.04296875 C-28.08154297 18.29711914 -28.08154297 18.29711914 -25.53125 16.390625 C-24.61085937 15.69646484 -23.69046875 15.00230469 -22.7421875 14.28710938 C-21.28039062 13.20719727 -21.28039062 13.20719727 -19.7890625 12.10546875 C-18.83773437 11.38939453 -17.88640625 10.67332031 -16.90625 9.93554688 C-15.06411178 8.55522247 -13.21375862 7.18577835 -11.35449219 5.82861328 C-9.92120091 4.77988455 -8.4992266 3.7147531 -7.10644531 2.61279297 C-4.61678721 0.7232188 -3.15686979 0.04654902 0 0 Z " fill="#36DA5F" transform="translate(161.9140625,117.95703125)"/>
<path d="M0 0 C1.75005634 0.01538994 3.50011198 0.03376096 5.25 0.0625 C4.92 1.0525 4.59 2.0425 4.25 3.0625 C3.32251953 3.05089844 2.39503906 3.03929687 1.43945312 3.02734375 C-2.0358902 3.0030285 -5.50736803 3.01481783 -8.98242188 3.05029297 C-10.47980878 3.05835384 -11.97734391 3.05244235 -13.47460938 3.03173828 C-22.38124768 2.75675376 -22.38124768 2.75675376 -30.53125 5.8046875 C-33.53635736 8.73466718 -35.41766807 11.06550421 -36.75 15.0625 C-38.40071396 16.08861949 -40.06970006 17.08558143 -41.75 18.0625 C-44.48119617 20.25851366 -45.62352347 21.40639885 -46.29526424 24.89107609 C-46.31625463 25.99098598 -46.33724501 27.09089586 -46.35887146 28.22413635 C-46.39182816 29.48954254 -46.42478485 30.75494873 -46.45874023 32.05870056 C-46.47488584 33.45913106 -46.49049268 34.85956785 -46.50561523 36.26000977 C-46.5356005 37.7371717 -46.56705536 39.21430443 -46.59986877 40.69140625 C-46.69948198 45.54530531 -46.75589139 50.39930614 -46.80859375 55.25390625 C-46.82873328 56.93128018 -46.84898282 58.6086528 -46.8693409 60.28602409 C-46.95112769 67.27482884 -47.02178025 74.26359136 -47.06295681 81.25276279 C-47.1220292 91.22993813 -47.24528665 101.2013625 -47.46152347 111.17641026 C-47.60869704 118.20943168 -47.68128878 125.24093662 -47.70036274 132.2754578 C-47.71357552 136.46651356 -47.75736661 140.65154214 -47.88113213 144.84091377 C-48.66056149 167.41120523 -48.66056149 167.41120523 -37.99926758 186.64331055 C-26.66481279 196.90311992 -13.36194372 196.58120789 1.13522243 196.02191639 C4.7082229 195.90482549 8.28163799 195.89848482 11.85626221 195.87884521 C18.61211835 195.82535877 25.36202429 195.67457394 32.11535382 195.48740363 C39.75382123 195.28077746 47.39237158 195.18860377 55.03300428 195.10387468 C71.44288653 194.91690304 87.84786896 194.61514311 104.25 194.0625 C105.12065598 194.0351326 105.99131195 194.0077652 106.88835144 193.97956848 C109.03135593 193.90605567 111.1718913 193.81246799 113.31347656 193.70605469 C114.3884137 193.65568054 115.46335083 193.6053064 116.57086182 193.55340576 C121.10469857 192.72265855 123.27482629 190.47306499 126.25 187.0625 C126.25 190.0625 126.25 190.0625 125.20993328 191.632864 C119.35824367 197.36657337 113.12153807 197.00242433 105.27856445 197.06103516 C103.86167379 197.0921245 102.44483219 197.12552222 101.02804565 197.16104126 C97.19053962 197.24798359 93.35360163 197.29515887 89.51529717 197.32949495 C87.10807437 197.35161034 84.70100687 197.38018838 82.29387474 197.41053391 C74.73550198 197.50328325 67.17750592 197.57040649 59.61862975 197.60256541 C50.94273134 197.63990561 42.27363945 197.76221961 33.59993774 197.95956957 C26.86483004 198.10741445 20.13162679 198.17639187 13.39492196 198.18829191 C9.38526932 198.19710637 5.38234839 198.23714338 1.37444496 198.36049271 C-26.04251197 199.15959174 -26.04251197 199.15959174 -37.14662647 188.85349083 C-48.80962666 176.55884356 -48.80962666 176.55884356 -49.01156616 168.1927948 C-49.04328918 166.94144241 -49.07501221 165.69009003 -49.10769653 164.40081787 C-49.13765407 163.00574295 -49.16733839 161.61066214 -49.19677734 160.21557617 C-49.23086463 158.75183304 -49.26508829 157.28809307 -49.29943848 155.82435608 C-49.60348237 142.39492905 -49.77927344 128.96329935 -49.920187 115.53127575 C-50.01706802 106.51139802 -50.15304567 97.49567446 -50.38916016 88.47827148 C-50.59535335 80.6021006 -50.72517992 72.72884985 -50.76652873 64.85002691 C-50.79082523 60.68703232 -50.85013827 56.53197556 -51.00089645 52.37148094 C-52.00522561 23.46455301 -52.00522561 23.46455301 -41.60347939 12.25506306 C-34.22025809 4.99303555 -27.95864632 -0.42836756 -17.25 -0.75 C-14.80748442 -0.64872056 -12.41761022 -0.46366587 -9.99023438 -0.17773438 C-6.64181994 0.18133709 -3.36577068 0.07285218 0 0 Z " fill="#58D275" transform="translate(101.75,52.9375)"/>
<path d="M0 0 C12.86588012 -0.10118344 25.73072678 -0.14821351 38.5970211 -0.12697029 C44.57215544 -0.11878812 50.54606395 -0.1289417 56.52099609 -0.18164062 C62.29225066 -0.23185787 68.06166393 -0.23307186 73.83302689 -0.20095444 C76.02976077 -0.19721619 78.22659808 -0.21084748 80.42310715 -0.24249649 C99.78848952 -0.50253763 99.78848952 -0.50253763 106.42822266 5.94970703 C110 10.3735091 110 10.3735091 110 13 C110.58386475 13.26377662 111.16772949 13.52755323 111.76928711 13.79932308 C115.92675723 16.03707337 118.67001409 18.89329234 121 23 C122.02278823 27.86123978 121.97982635 32.68113688 121.9375 37.62670898 C121.95027683 39.10097969 121.9659918 40.5752274 121.98440552 42.04943848 C122.02470561 46.03533876 122.02075191 50.02002676 122.00614166 54.00606036 C121.99791602 57.34100876 122.01134626 60.67573009 122.02465248 64.01065117 C122.05565442 71.8817305 122.05061009 79.752217 122.02246094 87.62329102 C121.99405922 95.72753744 122.02397211 103.83006984 122.08308029 111.93411201 C122.1320155 118.90773045 122.14582669 125.88081479 122.1314888 132.85459 C122.12321025 137.0129162 122.1276958 141.17018208 122.16552734 145.32836723 C122.19948702 149.2403657 122.18929768 153.1498775 122.1460228 157.06175995 C122.13736714 158.4915408 122.14382438 159.92151124 122.16705704 161.35112953 C122.32865044 172.14036595 122.32865044 172.14036595 118.9208374 176.91008186 C116.71466211 179.13444075 114.5021414 181.11912975 112 183 C111.34 182.67 110.68 182.34 110 182 C110.56346539 181.59035161 111.12693079 181.18070322 111.70747089 180.75864124 C115.23801468 177.80544479 117.63043612 175.44435125 118.79218102 170.90395164 C119.11804252 167.10506639 119.20904822 163.34101907 119.2097168 159.53198242 C119.2386087 158.07389936 119.27070445 156.61587683 119.30574036 155.15792847 C119.38891641 151.21287343 119.42028973 147.26909524 119.43685126 143.3232553 C119.4492505 140.84913414 119.47227172 138.37533795 119.49884987 135.90133095 C119.59076411 127.24273107 119.63814183 118.58509368 119.6472168 109.92602539 C119.65689056 101.89969541 119.76732295 93.87903994 119.92491788 85.85437697 C120.05600822 78.93147561 120.11223366 72.01042695 120.11304408 65.08629495 C120.11489818 60.96487505 120.14559779 56.84906054 120.25339317 52.72893333 C120.95108525 32.11651502 120.95108525 32.11651502 112.24907112 13.96311378 C104.26233558 5.70106696 96.23825231 1.98862551 84.78875732 1.66820526 C81.68446024 1.69550547 78.5903659 1.80844335 75.48828125 1.92578125 C73.29586597 1.9388195 71.10338585 1.94339645 68.91093445 1.93998718 C63.20472002 1.95337098 57.50671259 2.07976168 51.80273438 2.23181152 C45.95696138 2.36695618 40.11074913 2.39238464 34.26367188 2.42773438 C22.83946126 2.51263132 11.42090938 2.7172289 0 3 C0 2.01 0 1.02 0 0 Z " fill="#52E274" transform="translate(123,53)"/>
<path d="M0 0 C5.28 0 10.56 0 16 0 C16 10.23 16 20.46 16 31 C10.72 31 5.44 31 0 31 C0 20.77 0 10.54 0 0 Z " fill="#35D95F" transform="translate(179,9)"/>
<path d="M0 0 C5.28 0 10.56 0 16 0 C16.02291394 4.11177927 16.04283951 8.22339658 16.05493164 12.33520508 C16.0599708 13.73495228 16.06680216 15.1346942 16.07543945 16.53442383 C16.0875232 18.54245777 16.09269807 20.55052957 16.09765625 22.55859375 C16.10551147 24.37315063 16.10551147 24.37315063 16.11352539 26.22436523 C16 29 16 29 15 30 C12.48863896 30.09975032 10.01096585 30.13882183 7.5 30.125 C6.79746094 30.12886719 6.09492187 30.13273437 5.37109375 30.13671875 C0.12661378 30.12661378 0.12661378 30.12661378 -1 29 C-1.10269256 26.57162301 -1.14058094 24.17840147 -1.125 21.75 C-1.12306641 21.03650391 -1.12113281 20.32300781 -1.11914062 19.58789062 C-1.06664562 13.02601517 -0.59415777 6.53573542 0 0 Z " fill="#34D85D" transform="translate(100,262)"/>
<path d="M0 0 C0 10.23 0 20.46 0 31 C-5.28 31 -10.56 31 -16 31 C-16 21.1 -16 11.2 -16 1 C-11.22041378 -1.38979311 -5.34373985 0 0 0 Z " fill="#34D95E" transform="translate(155,9)"/>
<path d="M0 0 C0 10.23 0 20.46 0 31 C-5.28 31 -10.56 31 -16 31 C-16 21.1 -16 11.2 -16 1 C-13 0 -13 0 0 0 Z " fill="#34D95E" transform="translate(115,9)"/>
<path d="M0 0 C5.28 0 10.56 0 16 0 C16 9.9 16 19.8 16 30 C10.72 30 5.44 30 0 30 C0 20.1 0 10.2 0 0 Z " fill="#33D75C" transform="translate(180,262)"/>
<path d="M0 0 C5.28 0 10.56 0 16 0 C16.02291394 4.11177927 16.04283951 8.22339658 16.05493164 12.33520508 C16.0599708 13.73495228 16.06680216 15.1346942 16.07543945 16.53442383 C16.0875232 18.54245777 16.09269807 20.55052957 16.09765625 22.55859375 C16.10551147 24.37315063 16.10551147 24.37315063 16.11352539 26.22436523 C16 29 16 29 15 30 C12.46950598 30.07313567 9.96695163 30.09247527 7.4375 30.0625 C6.72658203 30.05798828 6.01566406 30.05347656 5.28320312 30.04882812 C3.52209987 30.03700864 1.76103964 30.01907263 0 30 C-1.42336877 27.15326245 -1.00758837 24.85384653 -0.87890625 21.6796875 C-0.83056641 20.42285156 -0.78222656 19.16601562 -0.73242188 17.87109375 C-0.67634766 16.55238281 -0.62027344 15.23367188 -0.5625 13.875 C-0.50927587 12.53517562 -0.45653549 11.19533192 -0.40429688 9.85546875 C-0.27430107 6.5701203 -0.13775941 3.28503207 0 0 Z " fill="#33D95E" transform="translate(140,262)"/>
<path d="M0 0 C1.16781006 0.00523682 2.33562012 0.01047363 3.53881836 0.01586914 C4.79887695 0.0190918 6.05893555 0.02231445 7.35717773 0.02563477 C8.6976732 0.03399136 10.03816799 0.04245632 11.37866211 0.05102539 C12.72306153 0.05603879 14.06746271 0.06060197 15.41186523 0.06469727 C18.71331644 0.07653042 22.01474471 0.09446653 25.31616211 0.11352539 C25.31616211 5.72352539 25.31616211 11.33352539 25.31616211 17.11352539 C16.07616211 17.11352539 6.83616211 17.11352539 -2.68383789 17.11352539 C-2.86946289 14.49415039 -3.05508789 11.87477539 -3.24633789 9.17602539 C-3.30764893 8.34981689 -3.36895996 7.5236084 -3.43212891 6.67236328 C-3.555389 4.82161873 -3.62144089 2.96732017 -3.68383789 1.11352539 C-2.68383789 0.11352539 -2.68383789 0.11352539 0 0 Z " fill="#34D95E" transform="translate(259.683837890625,181.886474609375)"/>
<path d="M0 0 C9.24 0 18.48 0 28 0 C28 5.61 28 11.22 28 17 C18.76 17 9.52 17 0 17 C0 11.39 0 5.78 0 0 Z " fill="#35D95E" transform="translate(257,141)"/>
<path d="M0 0 C9.24 0 18.48 0 28 0 C28.020625 2.619375 28.04125 5.23875 28.0625 7.9375 C28.071604 8.7637085 28.08070801 9.58991699 28.09008789 10.44116211 C28.09723945 12.29433759 28.0502852 14.14749308 28 16 C27 17 27 17 24.40795898 17.11352539 C23.28204346 17.10828857 22.15612793 17.10305176 20.99609375 17.09765625 C19.78115234 17.09443359 18.56621094 17.09121094 17.31445312 17.08789062 C16.03505859 17.07951172 14.75566406 17.07113281 13.4375 17.0625 C12.15423828 17.05798828 10.87097656 17.05347656 9.54882812 17.04882812 C6.3658658 17.03699555 3.18292726 17.01905944 0 17 C0 11.39 0 5.78 0 0 Z " fill="#34D85E" transform="translate(12,101)"/>
<path d="M0 0 C4.47920597 -0.02682159 8.95825351 -0.04675177 13.4375 -0.0625 C14.71689453 -0.07087891 15.99628906 -0.07925781 17.31445312 -0.08789062 C19.13686523 -0.09272461 19.13686523 -0.09272461 20.99609375 -0.09765625 C22.12200928 -0.10289307 23.2479248 -0.10812988 24.40795898 -0.11352539 C27 0 27 0 28 1 C28.07325436 3.6986905 28.09222351 6.36502556 28.0625 9.0625 C28.041875 11.681875 28.02125 14.30125 28 17 C18.76 17 9.52 17 0 17 C0 11.39 0 5.78 0 0 Z " fill="#34D85D" transform="translate(12,141)"/>
<path d="M0 0 C9.57 0 19.14 0 29 0 C29 5.28 29 10.56 29 16 C19.76 16 10.52 16 1 16 C0.67 10.72 0.34 5.44 0 0 Z " fill="#35D85F" transform="translate(11,183)"/>
<path d="M0 0 C9.24 0 18.48 0 28 0 C28 5.28 28 10.56 28 16 C18.76 16 9.52 16 0 16 C0 10.72 0 5.44 0 0 Z " fill="#34D95D" transform="translate(257,101)"/>
<path d="M0 0 C4.62 0 9.24 0 14 0 C14.11584912 11.38731191 14.20469289 22.77448364 14.25906086 34.16226482 C14.28515488 39.45010378 14.3205498 44.73753957 14.37719727 50.02514648 C14.43152335 55.12800369 14.461422 60.23047311 14.47438622 65.33359718 C14.48362498 67.2804964 14.50166634 69.22737438 14.52865028 71.17410851 C14.56494875 73.90128821 14.56994505 76.62686565 14.56762695 79.35424805 C14.58560333 80.15913666 14.60357971 80.96402527 14.62210083 81.79330444 C14.58790765 85.51104236 14.11412084 87.81303435 12.16828918 91.00091553 C7.43791403 93.98562399 3.22949274 93.69101615 -2.26025391 93.63110352 C-3.39733292 93.63825882 -4.53441193 93.64541412 -5.70594788 93.65278625 C-9.46322841 93.66969091 -13.21931905 93.65026089 -16.9765625 93.62890625 C-19.58539936 93.62973466 -22.19423618 93.63219298 -24.80307007 93.63621521 C-30.26891796 93.64073233 -35.73442319 93.6248874 -41.20019531 93.59692383 C-47.5198451 93.5648411 -53.83887807 93.56490097 -60.15857184 93.5821386 C-66.24072593 93.59799709 -72.32261751 93.5911795 -78.40476608 93.57420158 C-80.99240995 93.56900848 -83.58007159 93.56951516 -86.16771317 93.57574654 C-89.77838009 93.58117819 -93.38798872 93.56088871 -96.99853516 93.53344727 C-98.07393051 93.53997314 -99.14932587 93.54649902 -100.25730896 93.55322266 C-101.72934029 93.53413597 -101.72934029 93.53413597 -103.23110962 93.5146637 C-104.08464838 93.51185678 -104.93818714 93.50904985 -105.81759071 93.50615788 C-108 93 -108 93 -109.79805565 90.96783352 C-110.3930181 89.99375593 -110.3930181 89.99375593 -111 89 C-110.01 89.33 -109.02 89.66 -108 90 C-106.40576441 90.09360719 -104.80790054 90.1305915 -103.21092224 90.13371277 C-101.7323877 90.14011024 -101.7323877 90.14011024 -100.22398376 90.14663696 C-99.14387527 90.14618378 -98.06376678 90.14573059 -96.95092773 90.14526367 C-95.81253448 90.14862228 -94.67414124 90.1519809 -93.50125122 90.15544128 C-89.72868772 90.16496047 -85.95616852 90.1668947 -82.18359375 90.16796875 C-79.56950359 90.17117999 -76.95541362 90.17454395 -74.34132385 90.17805481 C-68.8594636 90.18444992 -63.37761543 90.18593718 -57.89575195 90.18530273 C-51.55355801 90.18470123 -45.21144892 90.19526826 -38.86927646 90.2110464 C-32.77225414 90.22567572 -26.67527269 90.22929146 -20.57823372 90.22869301 C-17.98138138 90.22987703 -15.38452849 90.23432223 -12.7876873 90.24202538 C-9.16494464 90.25176759 -5.54242358 90.2489704 -1.91967773 90.24291992 C-0.83754501 90.24853943 0.24458771 90.25415894 1.35951233 90.25994873 C2.83381714 90.253657 2.83381714 90.253657 4.33790588 90.24723816 C5.62349317 90.24805531 5.62349317 90.24805531 6.93505192 90.24888897 C9.22289942 90.18870749 9.22289942 90.18870749 11 88 C11.21758829 85.26101058 11.31141632 82.62011167 11.31884766 79.87841797 C11.32889328 79.03931885 11.3389389 78.20021973 11.34928894 77.33569336 C11.38024786 74.55453189 11.3971912 71.77346722 11.4140625 68.9921875 C11.43276394 67.06689615 11.45233657 65.14161309 11.4727478 63.21633911 C11.52418323 58.14305494 11.56374774 53.06974415 11.60089111 47.99633789 C11.6408594 42.82170977 11.69198438 37.64719341 11.7421875 32.47265625 C11.83908182 22.31518255 11.92344321 12.15764591 12 2 C8.04 2 4.08 2 0 2 C0 1.34 0 0.68 0 0 Z " fill="#5DDA7A" transform="translate(197,124)"/>
<path d="M0 0 C17.67231716 -0.25748935 35.34404523 -0.45119172 53.01781178 -0.56993389 C61.22499785 -0.62654539 69.43101541 -0.70365755 77.63745117 -0.82983398 C84.79414628 -0.93981745 91.94999491 -1.01051968 99.1075117 -1.03497344 C102.89445052 -1.04925941 106.67896884 -1.08258076 110.46512794 -1.16303062 C136.61853639 -1.69796375 136.61853639 -1.69796375 142.98439312 3.91305065 C147.25172851 8.59629682 149.12586281 12.29228005 149.12025452 18.51748657 C149.12231651 20.27596169 149.12231651 20.27596169 149.12442017 22.06996155 C149.12082489 23.36252365 149.11722961 24.65508575 149.11352539 25.98681641 C149.11324343 27.3565521 149.11340142 28.72628795 149.1139679 30.09602356 C149.11425553 33.8210061 149.10836428 37.54595663 149.10139394 41.27093172 C149.09515476 45.16136292 149.09455615 49.0517948 149.09336853 52.94223022 C149.09025688 60.31223352 149.08204573 67.68222202 149.07201904 75.05221879 C149.06085274 83.44146265 149.05534615 91.8307072 149.05032361 100.21995664 C149.03986299 117.47997965 149.02226676 134.73998826 149 152 C148.67 152 148.34 152 148 152 C148.00056554 150.95058684 148.00056554 150.95058684 148.0011425 149.87997341 C148.00826438 132.84480085 147.98231977 115.80999876 147.9197216 98.77493954 C147.8902439 90.53682276 147.871895 82.29896369 147.87988281 74.06079102 C147.88681789 66.87907313 147.87273161 59.69775418 147.83356392 52.51613432 C147.81356034 48.71454291 147.80397453 44.9135777 147.81957626 41.11195183 C147.83394217 37.53043579 147.82010971 33.95011412 147.78504753 30.36875153 C147.77333303 28.43423189 147.79115818 26.49960329 147.8099823 24.56513977 C147.73534632 17.10192474 147.73534632 17.10192474 144.06321716 10.84515381 C143.0459331 9.8927068 142.02524823 8.94386876 141 8 C140.11671021 6.56781128 140.11671021 6.56781128 139.21557617 5.10668945 C135.72867929 1.79115962 132.19627006 2.27264778 127.55078125 2.29296875 C126.603134 2.27784744 125.65548676 2.26272614 124.67912292 2.24714661 C121.55668498 2.20352339 118.43521626 2.19531271 115.3125 2.1875 C113.12497795 2.16408565 110.93747646 2.13867158 108.75 2.11132812 C102.16665387 2.03791599 95.58371676 2.0112273 89 2 C88.06524841 1.99824768 87.13049683 1.99649536 86.16741943 1.99468994 C78.64851213 1.98353353 71.12969996 1.98936952 63.61083984 2.01831055 C42.40230511 2.08349161 21.20086222 1.51820348 0 1 C0 0.67 0 0.34 0 0 Z " fill="#5EE885" transform="translate(80,69)"/>
<path d="M0 0 C3.96970404 1.34165947 7.04855561 3.3339404 10.4609375 5.73046875 C11.11779541 6.18019043 11.77465332 6.62991211 12.45141602 7.09326172 C17.08987211 10.28804352 21.63492836 13.59116575 26.0859375 17.04296875 C25.9609375 19.79296875 25.9609375 19.79296875 25.0859375 23.04296875 C22.0234375 25.41796875 22.0234375 25.41796875 19.0859375 27.04296875 C19.7459375 27.70296875 20.4059375 28.36296875 21.0859375 29.04296875 C20.4259375 30.03296875 19.7659375 31.02296875 19.0859375 32.04296875 C20.0759375 32.70296875 21.0659375 33.36296875 22.0859375 34.04296875 C22.0859375 34.70296875 22.0859375 35.36296875 22.0859375 36.04296875 C21.4259375 36.04296875 20.7659375 36.04296875 20.0859375 36.04296875 C20.0859375 36.70296875 20.0859375 37.36296875 20.0859375 38.04296875 C22.7259375 37.05296875 25.3659375 36.06296875 28.0859375 35.04296875 C28.0859375 35.70296875 28.0859375 36.36296875 28.0859375 37.04296875 C26.76203003 37.74643433 26.76203003 37.74643433 25.41137695 38.46411133 C22.1212771 40.21277495 18.83210925 41.96318537 15.54321289 43.71411133 C14.12256624 44.47011851 12.70167092 45.22565862 11.28051758 45.98071289 C9.23192042 47.06923194 7.18423823 48.15945546 5.13671875 49.25 C4.5063118 49.58449661 3.87590485 49.91899323 3.22639465 50.2636261 C0.53003079 51.70157373 -2.11114978 53.16630145 -4.70239258 54.7878418 C-6.9140625 56.04296875 -6.9140625 56.04296875 -9.3515625 55.91796875 C-12.36728294 54.88821055 -15.10646911 53.54470475 -17.9140625 52.04296875 C-17.9140625 51.38296875 -17.9140625 50.72296875 -17.9140625 50.04296875 C-17.2334375 50.35234375 -16.5528125 50.66171875 -15.8515625 50.98046875 C-12.40333399 52.22770034 -9.59174547 52.91392724 -5.9140625 53.04296875 C-3.88638789 51.75211111 -1.8901943 50.41142806 0.0859375 49.04296875 C2.47179326 47.7961158 4.85089395 46.58658101 7.2734375 45.41796875 C10.66790624 43.76871902 13.93651995 42.14258045 17.0859375 40.04296875 C17.0859375 39.71296875 17.0859375 39.38296875 17.0859375 39.04296875 C16.0959375 38.54796875 16.0959375 38.54796875 15.0859375 38.04296875 C13.0859375 36.70963542 11.0859375 35.37630208 9.0859375 34.04296875 C10.4059375 33.05296875 11.7259375 32.06296875 13.0859375 31.04296875 C12.30089844 31.501875 11.51585937 31.96078125 10.70703125 32.43359375 C8.5439262 33.69695326 6.37982715 34.95861208 4.21484375 36.21875 C2.40678589 37.27288611 0.6008448 38.3307075 -1.19921875 39.3984375 C-5.69587658 42.04296875 -5.69587658 42.04296875 -7.9140625 42.04296875 C-7.9140625 41.38296875 -7.9140625 40.72296875 -7.9140625 40.04296875 C-6.76164062 39.48609375 -5.60921875 38.92921875 -4.421875 38.35546875 C-0.04234789 36.16474097 4.08143494 33.66866402 8.2109375 31.04296875 C8.88769531 30.61757812 9.56445312 30.1921875 10.26171875 29.75390625 C13.36444132 27.79745063 16.43243528 25.81142904 19.453125 23.73046875 C22.0859375 22.04296875 22.0859375 22.04296875 24.0859375 22.04296875 C24.0859375 20.39296875 24.0859375 18.74296875 24.0859375 17.04296875 C23.37179688 16.79289062 22.65765625 16.5428125 21.921875 16.28515625 C18.80275707 14.91893104 16.42049292 13.22536757 13.7109375 11.16796875 C6.91691661 5.45391976 6.91691661 5.45391976 -1.19921875 3.171875 C-4.77899204 4.32049291 -7.50244887 6.31631973 -10.4765625 8.54296875 C-11.08064941 8.98495605 -11.68473633 9.42694336 -12.30712891 9.88232422 C-14.18347559 11.25955386 -16.04975088 12.64950216 -17.9140625 14.04296875 C-18.51428223 14.48930664 -19.11450195 14.93564453 -19.73291016 15.39550781 C-23.13868581 17.92885409 -26.53173708 20.47834838 -29.9140625 23.04296875 C-29.9140625 22.05296875 -29.9140625 21.06296875 -29.9140625 20.04296875 C-28.08154297 18.29711914 -28.08154297 18.29711914 -25.53125 16.390625 C-24.61085937 15.69646484 -23.69046875 15.00230469 -22.7421875 14.28710938 C-21.28039062 13.20719727 -21.28039062 13.20719727 -19.7890625 12.10546875 C-18.83773437 11.38939453 -17.88640625 10.67332031 -16.90625 9.93554688 C-15.06411178 8.55522247 -13.21375862 7.18577835 -11.35449219 5.82861328 C-9.92120091 4.77988455 -8.4992266 3.7147531 -7.10644531 2.61279297 C-4.61678721 0.7232188 -3.15686979 0.04654902 0 0 Z " fill="#51DE76" transform="translate(161.9140625,117.95703125)"/>
<path d="M0 0 C0.73049561 -0.0021904 1.46099121 -0.0043808 2.21362305 -0.00663757 C4.62245306 -0.00894484 7.03005421 0.0172785 9.4387207 0.04418945 C11.11212272 0.04911315 12.78553024 0.05241216 14.4589386 0.05415344 C17.96190031 0.06178902 21.46445276 0.08234015 24.96728516 0.11328125 C29.46681441 0.15294759 33.96607794 0.17090477 38.46576214 0.18059063 C42.74845128 0.19054131 47.03107491 0.21044375 51.3137207 0.23168945 C52.13545965 0.2350852 52.9571986 0.23848095 53.80383873 0.2419796 C56.11670198 0.2535028 58.42939286 0.27201312 60.7421875 0.29296875 C62.71930977 0.30773506 62.71930977 0.30773506 64.7363739 0.32279968 C67.67700195 0.4699707 67.67700195 0.4699707 68.67700195 1.4699707 C68.9089306 2.98466519 69.08915434 4.50751632 69.23950195 6.0324707 C69.32329102 6.85875977 69.40708008 7.68504883 69.4934082 8.53637695 C69.55399414 9.17446289 69.61458008 9.81254883 69.67700195 10.4699707 C68.02700195 10.4699707 66.37700195 10.4699707 64.67700195 10.4699707 C65.00700195 9.4799707 65.33700195 8.4899707 65.67700195 7.4699707 C66.02520236 5.80634654 66.36104687 4.14001899 66.67700195 2.4699707 C57.0630009 2.55423685 47.44917972 2.64906605 37.83542061 2.75749779 C33.37167614 2.80750906 28.9079559 2.85383846 24.4440918 2.8918457 C20.13867915 2.92863776 15.83346686 2.97498071 11.52822495 3.02803421 C9.88317239 3.04661061 8.23807684 3.0617065 6.59296036 3.07331467 C4.29410396 3.09012198 1.99570971 3.1191425 -0.30297852 3.15112305 C-1.61313934 3.16444672 -2.92330017 3.17777039 -4.27316284 3.1914978 C-7.43152801 3.15191347 -7.43152801 3.15191347 -9.32299805 5.4699707 C-9.63718303 7.69353945 -9.63718303 7.69353945 -9.60147095 10.30410767 C-9.61263443 11.32496964 -9.62379791 12.3458316 -9.63529968 13.39762878 C-9.63745987 14.52187759 -9.63962006 15.6461264 -9.6418457 16.80444336 C-9.65189133 17.98491745 -9.66193695 19.16539154 -9.67228699 20.38163757 C-9.69792938 23.62315954 -9.71475384 26.86458571 -9.72771502 30.10617876 C-9.74331964 33.49217272 -9.77011829 36.8780773 -9.79574585 40.26400757 C-9.84258107 46.6777391 -9.87930212 53.09148735 -9.91241872 59.50530279 C-9.9506067 66.80635363 -10.0000255 74.10731482 -10.05040288 81.40829015 C-10.15379322 96.42878411 -10.24303042 111.44933242 -10.32299805 126.4699707 C-10.65299805 126.4699707 -10.98299805 126.4699707 -11.32299805 126.4699707 C-11.41642196 110.63227311 -11.48696759 94.79464986 -11.53024673 78.95674515 C-11.55087577 71.60298707 -11.57900263 64.24940017 -11.62475586 56.89575195 C-11.66461349 50.48661522 -11.69042838 44.07760244 -11.69935203 37.66834521 C-11.7045687 34.27433857 -11.7168361 30.88068655 -11.74591827 27.48679352 C-11.77484939 23.69874322 -11.77895819 19.91143357 -11.77709961 16.12329102 C-11.79148071 14.99688202 -11.80586182 13.87047302 -11.82067871 12.70993042 C-11.81518005 11.67790497 -11.8096814 10.64587952 -11.80401611 9.58258057 C-11.80770329 8.68659779 -11.81139046 7.79061501 -11.81518936 6.86748123 C-10.49807436 0.45168925 -5.66435944 -0.10587354 0 0 Z " fill="#57E279" transform="translate(97.322998046875,85.530029296875)"/>
<path d="M0 0 C2.59091115 2.35257808 4.20243521 4.84669064 5.9375 7.875 C11.78503819 17.69203491 18.79518537 22.16614044 29 27 C26 28 26 28 23.80859375 27.1875 C23.02613281 26.795625 22.24367187 26.40375 21.4375 26 C19.14076453 24.81044695 19.14076453 24.81044695 17 24 C14.82394929 24.82128186 14.82394929 24.82128186 14.125 27 C13 29 13 29 11.25390625 29.8203125 C7.95908762 30.08298435 6.47644883 28.7558974 3.8125 26.875 C2.93207031 26.27429688 2.05164063 25.67359375 1.14453125 25.0546875 C-1.31752496 22.69577755 -1.70514788 21.34165731 -2 18 C-2.66 18 -3.32 18 -4 18 C-4 17.34 -4 16.68 -4 16 C-3.34 16 -2.68 16 -2 16 C-0.53129487 10.75462454 0.16496581 5.44387164 0 0 Z " fill="#41DB68" transform="translate(166,97)"/>
<path d="M0 0 C0.33 0 0.66 0 1 0 C1.18032272 0.79895187 1.36064545 1.59790375 1.5464325 2.42106628 C5.18809637 11.38747039 12.70909117 19.1308572 21 24 C29.95593005 26.83193907 39.50241879 26.19598371 48.7838285 25.85802245 C52.35958178 25.74740518 55.93569226 25.74144584 59.51289368 25.72297668 C66.27556847 25.672547 73.03291853 25.52987463 79.79333478 25.35288459 C87.43911752 25.15753869 95.08496198 25.07079449 102.73268068 24.99105108 C119.15883867 24.81488021 135.58115823 24.53622293 152 24 C153.30674871 23.95971365 153.30674871 23.95971365 154.63989639 23.91861343 C156.78316216 23.84573245 158.92386325 23.75242736 161.06567383 23.64575195 C162.14029373 23.59506058 163.21491364 23.5443692 164.32209778 23.49214172 C168.85448216 22.65918545 171.025355 20.4099589 174 17 C174 20 174 20 172.95993328 21.570364 C167.10824367 27.30407337 160.87153807 26.93992433 153.02856445 26.99853516 C151.61167379 27.0296245 150.19483219 27.06302222 148.77804565 27.09854126 C144.94053962 27.18548359 141.10360163 27.23265887 137.26529717 27.26699495 C134.85807437 27.28911034 132.45100687 27.31768838 130.04387474 27.34803391 C122.48550198 27.44078325 114.92750592 27.50790649 107.36862975 27.54006541 C98.69273134 27.57740561 90.02363945 27.69971961 81.34993774 27.89706957 C74.61483004 28.04491445 67.88162679 28.11389187 61.14492196 28.12579191 C57.13526932 28.13460637 53.13234839 28.17464338 49.12444496 28.29799271 C21.72636594 29.09582845 21.72636594 29.09582845 10.5545454 18.98630333 C0.13693009 8.27399649 0.13693009 8.27399649 -0.19903088 2.69469643 C-0.13335069 1.80544661 -0.0676705 0.91619678 0 0 Z " fill="#6CDC85" transform="translate(54,223)"/>
<path d="M0 0 C1.07911652 0.00707474 2.15823303 0.01414948 3.27005005 0.0214386 C6.70418698 0.04934463 10.13667144 0.11207956 13.5703125 0.17578125 C15.90362223 0.20086886 18.2369576 0.22368121 20.5703125 0.24414062 C26.27920612 0.29915881 31.98714123 0.38274809 37.6953125 0.48828125 C37.6953125 0.81828125 37.6953125 1.14828125 37.6953125 1.48828125 C36.82660019 1.47376419 36.82660019 1.47376419 35.94033813 1.45895386 C29.87184301 1.36749215 23.80594806 1.34694663 17.73681641 1.36621094 C15.47696437 1.36427309 13.21705191 1.34469867 10.95751953 1.30664062 C7.69388173 1.254814 4.43572327 1.26798657 1.171875 1.29296875 C-0.32561783 1.24836014 -0.32561783 1.24836014 -1.85336304 1.20285034 C-7.79877645 1.32213398 -11.1812303 2.63737632 -15.57434082 6.70800781 C-21.42784606 12.8671621 -21.70757463 17.96974706 -21.53173828 26.19970703 C-21.53879512 27.55094763 -21.55024781 28.90217123 -21.5657196 30.25334167 C-21.59510803 33.89209374 -21.56363421 37.52798768 -21.52055597 41.16650629 C-21.48598243 44.97957107 -21.50830368 48.79231126 -21.52438354 52.60543823 C-21.54623725 59.81268726 -21.51751657 67.01879598 -21.4702605 74.22588718 C-21.41891446 82.43643596 -21.42450179 90.64664443 -21.43468118 98.85731149 C-21.45433976 115.73471219 -21.40311986 132.6111644 -21.3046875 149.48828125 C-21.6346875 149.48828125 -21.9646875 149.48828125 -22.3046875 149.48828125 C-22.42152592 131.59900658 -22.50967805 113.70983103 -22.56374836 95.82025719 C-22.58952229 87.51366796 -22.62465705 79.2073159 -22.68188477 70.90087891 C-22.73174489 63.66037099 -22.76398443 56.42003485 -22.77512997 49.17936003 C-22.78164443 45.34592334 -22.79693747 41.51297803 -22.83333778 37.67969894 C-22.86733908 34.06972558 -22.87773251 30.46044482 -22.87022591 26.85032654 C-22.87225198 24.89761511 -22.8991257 22.94497869 -22.92678833 20.99246216 C-22.87051053 11.41756692 -22.87051053 11.41756692 -19.93208313 7.83174133 C-19.06504257 7.05839951 -18.19800201 6.28505768 -17.3046875 5.48828125 C-16.44472168 4.54960205 -15.58475586 3.61092285 -14.69873047 2.64379883 C-10.38074414 -0.78559399 -5.25910844 -0.13039259 0 0 Z " fill="#6DD283" transform="translate(90.3046875,69.51171875)"/>
<path d="M0 0 C32.67 0.33 65.34 0.66 99 1 C99 1.66 99 2.32 99 3 C66.33 3 33.66 3 0 3 C0 2.01 0 1.02 0 0 Z " fill="#4CDB6A" transform="translate(123,53)"/>
<path d="M0 0 C0 10.23 0 20.46 0 31 C-5.28 31 -10.56 31 -16 31 C-16 21.1 -16 11.2 -16 1 C-13 0 -13 0 0 0 Z M-14 2 C-14 10.91 -14 19.82 -14 29 C-10.04 29 -6.08 29 -2 29 C-2 20.09 -2 11.18 -2 2 C-5.96 2 -9.92 2 -14 2 Z " fill="#5CD77B" transform="translate(115,9)"/>
<path d="M0 0 C0 10.23 0 20.46 0 31 C-5.28 31 -10.56 31 -16 31 C-16 21.1 -16 11.2 -16 1 C-11.22041378 -1.38979311 -5.34373985 0 0 0 Z M-14 2 C-14 10.91 -14 19.82 -14 29 C-10.04 29 -6.08 29 -2 29 C-2 20.09 -2 11.18 -2 2 C-5.96 2 -9.92 2 -14 2 Z " fill="#5AD57C" transform="translate(155,9)"/>
<path d="M0 0 C5.28 0 10.56 0 16 0 C16 9.9 16 19.8 16 30 C10.72 30 5.44 30 0 30 C0 20.1 0 10.2 0 0 Z M2 2 C2 10.58 2 19.16 2 28 C5.96 28 9.92 28 14 28 C14 19.42 14 10.84 14 2 C10.04 2 6.08 2 2 2 Z " fill="#4EE075" transform="translate(180,262)"/>
<path d="M0 0 C0 0.99 0 1.98 0 3 C-2.45703125 4.83203125 -2.45703125 4.83203125 -5.8125 6.8125 C-6.39620361 7.16070801 -6.97990723 7.50891602 -7.58129883 7.86767578 C-12.26494914 10.63889373 -17.03553801 13.24703163 -21.85546875 15.7734375 C-24.11804838 16.94288907 -24.11804838 16.94288907 -26 19 C-26.30959245 22.28168001 -26.37912757 25.54122851 -26.4609375 28.8359375 C-27.09735728 32.57144492 -28.0395559 33.71483969 -31 36 C-33.875 37.0625 -33.875 37.0625 -37 37 C-40.48434829 35.01933798 -42.7110277 32.86691689 -44 29 C-44.0685495 27.10529184 -44.08480372 25.2083166 -44.0625 23.3125 C-44.05347656 22.31863281 -44.04445312 21.32476562 -44.03515625 20.30078125 C-44.02355469 19.54152344 -44.01195312 18.78226563 -44 18 C-44.67417969 17.75507813 -45.34835938 17.51015625 -46.04296875 17.2578125 C-49.64090714 15.72738164 -52.93876063 13.84156692 -56.3125 11.875 C-56.95767578 11.50246094 -57.60285156 11.12992188 -58.26757812 10.74609375 C-59.84675945 9.83367787 -61.42361864 8.91724491 -63 8 C-63 7.01 -63 6.02 -63 5 C-43.15198579 14.29417292 -43.15198579 14.29417292 -40.48828125 20.55078125 C-40.375 24 -40.375 24 -40.7734375 27.1875 C-41.26020935 30.02990999 -41.26020935 30.02990999 -39.7265625 32.34375 C-38.02752764 34.28534956 -38.02752764 34.28534956 -35 34.5 C-31.98026457 34.2825694 -31.98026457 34.2825694 -30.27734375 32.37890625 C-28.5486835 29.15947477 -29.18004171 27.04065972 -29.5625 23.4375 C-29.4140625 19.6875 -29.4140625 19.6875 -28 16 C-22.96351282 11.56641693 -16.57294349 8.97313295 -10.51904297 6.21826172 C-6.8257696 4.43211769 -3.41181716 2.26992742 0 0 Z " fill="#61DE85" transform="translate(189,169)"/>
<path d="M0 0 C9.24 0 18.48 0 28 0 C28 5.61 28 11.22 28 17 C18.76 17 9.52 17 0 17 C0 11.39 0 5.78 0 0 Z M2 2 C2 6.29 2 10.58 2 15 C9.92 15 17.84 15 26 15 C26 10.71 26 6.42 26 2 C18.08 2 10.16 2 2 2 Z " fill="#59D678" transform="translate(257,141)"/>
<path d="M0 0 C9.24 0 18.48 0 28 0 C28.020625 2.619375 28.04125 5.23875 28.0625 7.9375 C28.071604 8.7637085 28.08070801 9.58991699 28.09008789 10.44116211 C28.09723945 12.29433759 28.0502852 14.14749308 28 16 C27 17 27 17 24.40795898 17.11352539 C23.28204346 17.10828857 22.15612793 17.10305176 20.99609375 17.09765625 C19.78115234 17.09443359 18.56621094 17.09121094 17.31445312 17.08789062 C16.03505859 17.07951172 14.75566406 17.07113281 13.4375 17.0625 C12.15423828 17.05798828 10.87097656 17.05347656 9.54882812 17.04882812 C6.3658658 17.03699555 3.18292726 17.01905944 0 17 C0 11.39 0 5.78 0 0 Z M2 2 C2 6.29 2 10.58 2 15 C9.92 15 17.84 15 26 15 C26 10.71 26 6.42 26 2 C18.08 2 10.16 2 2 2 Z " fill="#54DE79" transform="translate(12,101)"/>
<path d="M0 0 C9.24 0 18.48 0 28 0 C28 5.28 28 10.56 28 16 C18.76 16 9.52 16 0 16 C0 10.72 0 5.44 0 0 Z M2 2 C1.67 5.96 1.34 9.92 1 14 C9.25 14 17.5 14 26 14 C26 10.04 26 6.08 26 2 C18.08 2 10.16 2 2 2 Z " fill="#5DD579" transform="translate(257,101)"/>
<path d="M0 0 C5.28 0 10.56 0 16 0 C16.02291394 4.11177927 16.04283951 8.22339658 16.05493164 12.33520508 C16.0599708 13.73495228 16.06680216 15.1346942 16.07543945 16.53442383 C16.0875232 18.54245777 16.09269807 20.55052957 16.09765625 22.55859375 C16.10551147 24.37315063 16.10551147 24.37315063 16.11352539 26.22436523 C16 29 16 29 15 30 C12.48863896 30.09975032 10.01096585 30.13882183 7.5 30.125 C6.79746094 30.12886719 6.09492187 30.13273437 5.37109375 30.13671875 C0.12661378 30.12661378 0.12661378 30.12661378 -1 29 C-1.10269256 26.57162301 -1.14058094 24.17840147 -1.125 21.75 C-1.12306641 21.03650391 -1.12113281 20.32300781 -1.11914062 19.58789062 C-1.06664562 13.02601517 -0.59415777 6.53573542 0 0 Z M1 2 C1 10.58 1 19.16 1 28 C5.29 28 9.58 28 14 28 C14 19.42 14 10.84 14 2 C9.71 2 5.42 2 1 2 Z " fill="#56DF7B" transform="translate(100,262)"/>
<path d="M0 0 C1.16781006 0.00523682 2.33562012 0.01047363 3.53881836 0.01586914 C4.79887695 0.0190918 6.05893555 0.02231445 7.35717773 0.02563477 C8.6976732 0.03399136 10.03816799 0.04245632 11.37866211 0.05102539 C12.72306153 0.05603879 14.06746271 0.06060197 15.41186523 0.06469727 C18.71331644 0.07653042 22.01474471 0.09446653 25.31616211 0.11352539 C25.31616211 5.72352539 25.31616211 11.33352539 25.31616211 17.11352539 C16.07616211 17.11352539 6.83616211 17.11352539 -2.68383789 17.11352539 C-2.86946289 14.49415039 -3.05508789 11.87477539 -3.24633789 9.17602539 C-3.30764893 8.34981689 -3.36895996 7.5236084 -3.43212891 6.67236328 C-3.555389 4.82161873 -3.62144089 2.96732017 -3.68383789 1.11352539 C-2.68383789 0.11352539 -2.68383789 0.11352539 0 0 Z M-1.68383789 2.11352539 C-1.68383789 6.40352539 -1.68383789 10.69352539 -1.68383789 15.11352539 C6.56616211 15.11352539 14.81616211 15.11352539 23.31616211 15.11352539 C23.31616211 10.82352539 23.31616211 6.53352539 23.31616211 2.11352539 C15.06616211 2.11352539 6.81616211 2.11352539 -1.68383789 2.11352539 Z " fill="#5EDC7E" transform="translate(259.683837890625,181.886474609375)"/>
<path d="M0 0 C-2.475 1.485 -2.475 1.485 -5 3 C-3.7934375 3.680625 -3.7934375 3.680625 -2.5625 4.375 C0 6 0 6 1 8 C1 7.01 1 6.02 1 5 C1.66 5.33 2.32 5.66 3 6 C1.57548686 9.557474 0.01526258 10.96125728 -3.3125 12.8125 C-4.07175781 13.25207031 -4.83101562 13.69164062 -5.61328125 14.14453125 C-8.53429369 15.19150625 -10.07545049 14.95525486 -13 14 C-13.66 13.34 -14.32 12.68 -15 12 C-14.67 11.01 -14.34 10.02 -14 9 C-14.99 8.67 -15.98 8.34 -17 8 C-15.41906946 6.87162591 -13.83515284 5.74743482 -12.25 4.625 C-11.36828125 3.99851563 -10.4865625 3.37203125 -9.578125 2.7265625 C-3.67673716 -1.22557905 -3.67673716 -1.22557905 0 0 Z " fill="#34D95E" transform="translate(178,149)"/>
<path d="M0 0 C5.28 0 10.56 0 16 0 C16 10.23 16 20.46 16 31 C10.72 31 5.44 31 0 31 C0 20.77 0 10.54 0 0 Z M2 2 C2 10.91 2 19.82 2 29 C6.29 29 10.58 29 15 29 C15 20.09 15 11.18 15 2 C10.71 2 6.42 2 2 2 Z " fill="#61D981" transform="translate(179,9)"/>
<path d="M0 0 C5.28 0 10.56 0 16 0 C16.02291394 4.11177927 16.04283951 8.22339658 16.05493164 12.33520508 C16.0599708 13.73495228 16.06680216 15.1346942 16.07543945 16.53442383 C16.0875232 18.54245777 16.09269807 20.55052957 16.09765625 22.55859375 C16.10551147 24.37315063 16.10551147 24.37315063 16.11352539 26.22436523 C16 29 16 29 15 30 C12.46950598 30.07313567 9.96695163 30.09247527 7.4375 30.0625 C6.72658203 30.05798828 6.01566406 30.05347656 5.28320312 30.04882812 C3.52209987 30.03700864 1.76103964 30.01907263 0 30 C-1.42336877 27.15326245 -1.00758837 24.85384653 -0.87890625 21.6796875 C-0.83056641 20.42285156 -0.78222656 19.16601562 -0.73242188 17.87109375 C-0.67634766 16.55238281 -0.62027344 15.23367188 -0.5625 13.875 C-0.50927587 12.53517562 -0.45653549 11.19533192 -0.40429688 9.85546875 C-0.27430107 6.5701203 -0.13775941 3.28503207 0 0 Z M1 2 C1 10.58 1 19.16 1 28 C5.29 28 9.58 28 14 28 C14 19.42 14 10.84 14 2 C9.71 2 5.42 2 1 2 Z " fill="#55E07B" transform="translate(140,262)"/>
<path d="M0 0 C3.96970404 1.34165947 7.04855561 3.3339404 10.4609375 5.73046875 C11.11779541 6.18019043 11.77465332 6.62991211 12.45141602 7.09326172 C17.08987211 10.28804352 21.63492836 13.59116575 26.0859375 17.04296875 C26.1484375 19.66796875 26.1484375 19.66796875 25.0859375 23.04296875 C18.16701858 29.04296875 18.16701858 29.04296875 14.0859375 29.04296875 C14.0859375 28.38296875 14.0859375 27.72296875 14.0859375 27.04296875 C15.765625 25.75390625 15.765625 25.75390625 17.9609375 24.41796875 C18.68023437 23.97195312 19.39953125 23.5259375 20.140625 23.06640625 C22.0859375 22.04296875 22.0859375 22.04296875 24.0859375 22.04296875 C24.0859375 20.39296875 24.0859375 18.74296875 24.0859375 17.04296875 C23.37179688 16.79289062 22.65765625 16.5428125 21.921875 16.28515625 C18.80275707 14.91893104 16.42049292 13.22536757 13.7109375 11.16796875 C6.91691661 5.45391976 6.91691661 5.45391976 -1.19921875 3.171875 C-4.77899204 4.32049291 -7.50244887 6.31631973 -10.4765625 8.54296875 C-11.08064941 8.98495605 -11.68473633 9.42694336 -12.30712891 9.88232422 C-14.18347559 11.25955386 -16.04975088 12.64950216 -17.9140625 14.04296875 C-18.51428223 14.48930664 -19.11450195 14.93564453 -19.73291016 15.39550781 C-23.13868581 17.92885409 -26.53173708 20.47834838 -29.9140625 23.04296875 C-29.9140625 22.05296875 -29.9140625 21.06296875 -29.9140625 20.04296875 C-28.08154297 18.29711914 -28.08154297 18.29711914 -25.53125 16.390625 C-24.61085937 15.69646484 -23.69046875 15.00230469 -22.7421875 14.28710938 C-21.28039062 13.20719727 -21.28039062 13.20719727 -19.7890625 12.10546875 C-18.83773437 11.38939453 -17.88640625 10.67332031 -16.90625 9.93554688 C-15.06411178 8.55522247 -13.21375862 7.18577835 -11.35449219 5.82861328 C-9.92120091 4.77988455 -8.4992266 3.7147531 -7.10644531 2.61279297 C-4.61678721 0.7232188 -3.15686979 0.04654902 0 0 Z " fill="#60E286" transform="translate(161.9140625,117.95703125)"/>
<path d="M0 0 C5.01947478 0.97781976 9.09512784 3.687044 13.3984375 6.33984375 C17.19636338 8.67886863 21.09893658 10.78125403 25.02734375 12.890625 C27.55844432 14.28213052 30.03243835 15.7491575 32.5 17.25 C31.51 17.745 31.51 17.745 30.5 18.25 C27.78198242 16.98657227 27.78198242 16.98657227 24.35546875 15.06640625 C23.10877654 14.37946185 21.86203002 13.69261602 20.61523438 13.00585938 C18.6517471 11.91165366 16.69023877 10.81403763 14.73022461 9.71362305 C12.83925232 8.65566138 10.94156238 7.61061157 9.04296875 6.56640625 C7.90883545 5.93162354 6.77470215 5.29684082 5.60620117 4.64282227 C2.53417369 3.2653235 0.80538162 2.75439304 -2.5 3.25 C-4.76298437 5.11963998 -4.76298437 5.11963998 -4.9375 8.0625 C-4.34908608 12.34951569 -2.72628881 13.42373622 0.5 16.25 C2.72540291 17.59880809 4.99916659 18.87078279 7.3125 20.0625 C8.47394531 20.66707031 9.63539062 21.27164063 10.83203125 21.89453125 C12.15267578 22.56548828 12.15267578 22.56548828 13.5 23.25 C13.5 23.91 13.5 24.57 13.5 25.25 C6.06532999 23.29350789 -1.46497832 19.12419196 -6.5 13.25 C-7.52209965 10.57231186 -7.71984739 8.10237901 -7.5 5.25 C-5.56130958 1.11974649 -4.57290921 0.32663637 0 0 Z " fill="#5FE082" transform="translate(110.5,149.75)"/>
<path d="M0 0 C9.57 0 19.14 0 29 0 C29 5.28 29 10.56 29 16 C19.76 16 10.52 16 1 16 C0.67 10.72 0.34 5.44 0 0 Z M2 1 C2 5.29 2 9.58 2 14 C10.25 14 18.5 14 27 14 C27 9.71 27 5.42 27 1 C18.75 1 10.5 1 2 1 Z " fill="#5DD77B" transform="translate(11,183)"/>
<path d="M0 0 C4.47915328 -0.02886338 8.95828291 -0.04675187 13.4375 -0.0625 C14.71689453 -0.07087891 15.99628906 -0.07925781 17.31445312 -0.08789062 C19.13686523 -0.09272461 19.13686523 -0.09272461 20.99609375 -0.09765625 C22.12200928 -0.10289307 23.2479248 -0.10812988 24.40795898 -0.11352539 C27 0 27 0 28 1 C28.07319621 3.69654854 28.09242537 6.36691458 28.0625 9.0625 C28.05798828 9.82111328 28.05347656 10.57972656 28.04882812 11.36132812 C28.0370068 13.24091871 28.01907078 15.12046899 28 17 C27.34 17 26.68 17 26 17 C26 12.05 26 7.1 26 2 C17.42 2 8.84 2 0 2 C0 1.34 0 0.68 0 0 Z " fill="#61E285" transform="translate(12,141)"/>
<path d="M0 0 C0.66 0 1.32 0 2 0 C2 4.29 2 8.58 2 13 C9.92 13 17.84 13 26 13 C26 13.66 26 14.32 26 15 C17.42 15 8.84 15 0 15 C0 10.05 0 5.1 0 0 Z " fill="#49DC6F" transform="translate(12,143)"/>
<path d="M0 0 C-0.33 0.99 -0.66 1.98 -1 3 C-11.23 3 -21.46 3 -32 3 C-32 2.34 -32 1.68 -32 1 C-21.32089373 0.36850058 -10.7016389 -0.17291697 0 0 Z " fill="#48E075" transform="translate(107,53)"/>
<path d="M0 0 C8.36628849 7.05024311 8.36628849 7.05024311 11 10 C11 10.66 11 11.32 11 12 C11.53625 12.20625 12.0725 12.4125 12.625 12.625 C16.0017654 14.57996944 18.30474839 17.18223695 21 20 C20.67 20.99 20.34 21.98 20 23 C17.14213611 20.21624295 14.29418216 17.42276402 11.45507812 14.61987305 C10.48770741 13.66759721 9.51766243 12.71803016 8.54492188 11.77124023 C7.14795655 10.41062452 5.761317 9.03943236 4.375 7.66796875 C3.53710938 6.84578857 2.69921875 6.0236084 1.8359375 5.17651367 C0 3 0 3 0 0 Z " fill="#64EA89" transform="translate(222,54)"/>
<path d="M0 0 C7.92 0 15.84 0 24 0 C24 4.29 24 8.58 24 13 C16.74 13 9.48 13 2 13 C2 12.67 2 12.34 2 12 C2.57032959 11.97494385 3.14065918 11.9498877 3.72827148 11.92407227 C6.29826157 11.80843451 8.86785527 11.68556376 11.4375 11.5625 C12.33533203 11.52318359 13.23316406 11.48386719 14.15820312 11.44335938 C15.43920898 11.38051758 15.43920898 11.38051758 16.74609375 11.31640625 C17.53685303 11.27974854 18.3276123 11.24309082 19.14233398 11.20532227 C21.01401441 11.19436743 21.01401441 11.19436743 22 10 C22.33 7.03 22.66 4.06 23 1 C15.41 1 7.82 1 0 1 C0 0.67 0 0.34 0 0 Z " fill="#2CD358" transform="translate(259,143)"/>
<path d="M0 0 C2.60796286 1.65961273 5.215417 3.31994826 7.8203125 4.984375 C9.93073573 6.32218628 12.05055084 7.6453015 14.1796875 8.953125 C15.17226562 9.56671875 16.16484375 10.1803125 17.1875 10.8125 C18.57001953 11.65748047 18.57001953 11.65748047 19.98046875 12.51953125 C20.64691406 13.00808594 21.31335938 13.49664062 22 14 C22 14.66 22 15.32 22 16 C13.9136495 13.03159286 6.25299766 7.91499779 0 2 C0 1.34 0 0.68 0 0 Z " fill="#62E086" transform="translate(131,143)"/>
<path d="M0 0 C0 3 0 3 -1.71484375 4.9375 C-2.44832031 5.618125 -3.18179688 6.29875 -3.9375 7 C-7.20657054 10.00140949 -7.20657054 10.00140949 -9 14 C-10.65071396 15.02611949 -12.31970006 16.02308143 -14 17 C-15.36984198 18.29579647 -16.7151049 19.61992749 -18 21 C-18.66 20.67 -19.32 20.34 -20 20 C-13.4 13.4 -6.8 6.8 0 0 Z " fill="#61DE84" transform="translate(74,54)"/>
<path d="M0 0 C0.4140625 2.06640625 0.4140625 2.06640625 0.625 4.5625 C0.69976562 5.38878906 0.77453125 6.21507813 0.8515625 7.06640625 C0.90054688 7.70449219 0.94953125 8.34257813 1 9 C-0.65 9 -2.3 9 -4 9 C-3.67 8.01 -3.34 7.02 -3 6 C-2.67 4.35 -2.34 2.7 -2 1 C-7.61 1 -13.22 1 -19 1 C-19 0.67 -19 0.34 -19 0 C-16.20865148 -0.19425873 -13.41716313 -0.38069517 -10.625 -0.5625 C-9.8309375 -0.61857422 -9.036875 -0.67464844 -8.21875 -0.73242188 C-2.2265625 -1.11328125 -2.2265625 -1.11328125 0 0 Z " fill="#4DE776" transform="translate(166,87)"/>
<path d="M0 0 C4.62 0 9.24 0 14 0 C14.33 0.99 14.66 1.98 15 3 C9.72 3 4.44 3 -1 3 C-0.67 2.01 -0.34 1.02 0 0 Z " fill="#41E466" transform="translate(108,53)"/>
<path d="M0 0 C-1.37154686 3.18419421 -2.86169983 4.97112596 -5.5625 7.125 C-8.21025666 9.20903634 -8.21025666 9.20903634 -10 12 C-12.75078884 12.91692961 -14.35948913 13.10886083 -17.1875 13.0625 C-19.0746875 13.0315625 -19.0746875 13.0315625 -21 13 C-20.67 12.34 -20.34 11.68 -20 11 C-19.175 11.144375 -18.35 11.28875 -17.5 11.4375 C-11.38461352 10.67307669 -7.78050992 5.82736544 -3.625 1.5625 C-2 0 -2 0 0 0 Z " fill="#5CDF84" transform="translate(228,221)"/>
<path d="M0 0 C0.53463867 0.15847412 1.06927734 0.31694824 1.62011719 0.48022461 C4.46704032 1.10200337 7.16527157 1.2164554 10.078125 1.31640625 C11.23828125 1.35830078 12.3984375 1.40019531 13.59375 1.44335938 C14.8003125 1.48267578 16.006875 1.52199219 17.25 1.5625 C18.47203125 1.60568359 19.6940625 1.64886719 20.953125 1.69335938 C23.9686392 1.79937355 26.98423448 1.90143936 30 2 C30 2.33 30 2.66 30 3 C20.1 3 10.2 3 0 3 C0 2.01 0 1.02 0 0 Z " fill="#40F271" transform="translate(123,53)"/>
<path d="M0 0 C1.875 0.3125 1.875 0.3125 4 1 C6.50314069 4.75471104 6.18786615 6.51593977 5.625 10.8359375 C4.69309639 14.06265375 2.81761044 15.33833231 0 17 C-0.33 16.34 -0.66 15.68 -1 15 C-0.34 14.484375 0.32 13.96875 1 13.4375 C3.30771734 11.06697302 3.30771734 11.06697302 3.4375 7.5 C2.99243527 3.93948214 2.44140066 2.54312569 0 0 Z " fill="#57DF7E" transform="translate(192,153)"/>
<path d="M0 0 C0 3 0 3 -2.4765625 5.66796875 C-6.30716043 8.67096836 -9.67037391 8.58899249 -14.375 8.3125 C-15.11105469 8.28994141 -15.84710938 8.26738281 -16.60546875 8.24414062 C-18.40453842 8.18572927 -20.20254753 8.09606337 -22 8 C-22 7.67 -22 7.34 -22 7 C-20.49759766 6.99613281 -20.49759766 6.99613281 -18.96484375 6.9921875 C-10.13553375 6.99407961 -10.13553375 6.99407961 -2.5625 2.9375 C-1.716875 1.968125 -0.87125 0.99875 0 0 Z " fill="#5CE07D" transform="translate(228,240)"/>
<path d="M0 0 C2.25 0.25 2.25 0.25 4 1 C3.29875 1.37125 2.5975 1.7425 1.875 2.125 C-1.61026512 4.39799899 -4.12776898 6.99417684 -7 10 C-7.66 9.67 -8.32 9.34 -9 9 C-7.33333333 7.33333333 -5.66666667 5.66666667 -4 4 C-2.9790625 2.824375 -2.9790625 2.824375 -1.9375 1.625 C-1.298125 1.08875 -0.65875 0.5525 0 0 Z " fill="#5BDA7D" transform="translate(79,70)"/>
</svg>
